<svg xmlns="http://www.w3.org/2000/svg" viewBox="0 0 1200 675" width="1200" height="675">
<defs>
  <filter id="card-shadow" x="-5%" y="-5%" width="110%" height="115%">
    <feDropShadow dx="0" dy="16" stdDeviation="24" flood-color="#000000" flood-opacity="0.35" />
  </filter>
</defs>
  <rect width="1200" height="675" fill="#0B1120" />
  <rect x="70.0" y="70.0" width="1060" height="535" rx="28" fill="#111827" stroke="rgba(56, 189, 248, 0.25)" stroke-width="1.5" filter="url(#card-shadow)" />
  <g transform="translate(134.0, 140.0)">
    <rect width="180" height="32" rx="16" fill="rgba(56, 189, 248, 0.12)" stroke="rgba(56, 189, 248, 0.3)" stroke-width="1" />
    <circle cx="16" cy="16" r="4" fill="#38BDF8" />
    <text x="28" y="21" font-family="-apple-system, BlinkMacSystemFont, 'Segoe UI', Roboto, Helvetica, Arial, sans-serif" font-size="12" font-weight="700" fill="#38BDF8" letter-spacing="1">LET'S CONNECT</text>
  </g>
  <text x="134.0" y="212.0" font-family="-apple-system, BlinkMacSystemFont, 'Segoe UI', Roboto, Helvetica, Arial, sans-serif" font-size="44" font-weight="800" fill="#FFFFFF">Manish Hira</text>
  <text x="134.0" y="248.0" font-family="-apple-system, BlinkMacSystemFont, 'Segoe UI', Roboto, Helvetica, Arial, sans-serif" font-size="20" font-weight="600" fill="#38BDF8">Data Analysis Manager • AI/ML Researcher</text>
  <text x="134.0" y="280.0" font-family="-apple-system, BlinkMacSystemFont, 'Segoe UI', Roboto, Helvetica, Arial, sans-serif" font-size="15" font-weight="400" fill="#94A3B8">Ph.D. Candidate (Stats &amp; ML) @ VCU • IEEE Senior Member</text>
  <g transform="translate(134.0, 316.0)">
    <rect x="0" y="0" width="140" height="28" rx="6" fill="rgba(56, 189, 248, 0.12)" />
    <text x="12" y="19" font-family="-apple-system, BlinkMacSystemFont, 'Segoe UI', Roboto, sans-serif" font-size="12" font-weight="500" fill="#94A3B8">Agentic AI Systems</text>
    <rect x="148" y="0" width="134" height="28" rx="6" fill="rgba(56, 189, 248, 0.12)" />
    <text x="158" y="19" font-family="-apple-system, BlinkMacSystemFont, 'Segoe UI', Roboto, sans-serif" font-size="12" font-weight="500" fill="#94A3B8">Dimension Reduction</text>
    <rect x="290" y="0" width="118" height="28" rx="6" fill="rgba(56, 189, 248, 0.12)" />
    <text x="300" y="19" font-family="-apple-system, BlinkMacSystemFont, 'Segoe UI', Roboto, sans-serif" font-size="12" font-weight="500" fill="#94A3B8">Granted Patents</text>
  </g>
  <line x1="134.0" y1="370.0" x2="564.0" y2="370.0" stroke="rgba(56, 189, 248, 0.25)" stroke-width="1" />
  <g transform="translate(134.0, 386.0)">
    <rect width="36" height="36" rx="8" fill="#0A66C2" />
    <g transform="translate(6, 6) scale(1.0)">
      <path fill="#ffffff" d="M18.5 18.5v-5.3a3.26 3.26 0 0 0-3.26-3.26c-.85 0-1.84.52-2.28 1.3v-1.11h-2.79v8.37h2.79v-4.93c0-.77.62-1.4 1.39-1.4a1.4 1.4 0 0 1 1.4 1.4v4.93h2.75M6.46 8.76a1.69 1.69 0 1 0-.01-3.38 1.69 1.69 0 0 0 .01 3.38m1.4 9.74v-8.37H5.06v8.37h2.8z"/>
    </g>
  </g>
  <text x="182.0" y="408.0" font-family="-apple-system, BlinkMacSystemFont, 'Segoe UI', Roboto, sans-serif" font-size="20" font-weight="700" fill="#FFFFFF">linkedin.com/in/mhira</text>
  <text x="182.0" y="428.0" font-family="-apple-system, BlinkMacSystemFont, 'Segoe UI', Roboto, sans-serif" font-size="13" font-weight="400" fill="#94A3B8">Point your phone camera to scan and connect</text>
  <!-- QR Box Container -->
  <rect x="670.0" y="137.5" width="400" height="400" rx="24" fill="#0B1120" stroke="rgba(56, 189, 248, 0.25)" stroke-width="1.5" />
  <rect x="789.79" y="181.81" width="9.44" height="9.44" rx="2.64" fill="#38BDF8" />
  <rect x="808.67" y="181.81" width="9.44" height="9.44" rx="2.64" fill="#38BDF8" />
  <rect x="827.54" y="181.81" width="9.44" height="9.44" rx="2.64" fill="#38BDF8" />
  <rect x="846.41" y="181.81" width="9.44" height="9.44" rx="2.64" fill="#38BDF8" />
  <rect x="884.15" y="181.81" width="9.44" height="9.44" rx="2.64" fill="#38BDF8" />
  <rect x="893.59" y="181.81" width="9.44" height="9.44" rx="2.64" fill="#38BDF8" />
  <rect x="931.33" y="181.81" width="9.44" height="9.44" rx="2.64" fill="#38BDF8" />
  <rect x="940.77" y="181.81" width="9.44" height="9.44" rx="2.64" fill="#38BDF8" />
  <rect x="789.79" y="191.24" width="9.44" height="9.44" rx="2.64" fill="#38BDF8" />
  <rect x="799.23" y="191.24" width="9.44" height="9.44" rx="2.64" fill="#38BDF8" />
  <rect x="818.10" y="191.24" width="9.44" height="9.44" rx="2.64" fill="#38BDF8" />
  <rect x="836.97" y="191.24" width="9.44" height="9.44" rx="2.64" fill="#38BDF8" />
  <rect x="846.41" y="191.24" width="9.44" height="9.44" rx="2.64" fill="#38BDF8" />
  <rect x="855.85" y="191.24" width="9.44" height="9.44" rx="2.64" fill="#38BDF8" />
  <rect x="865.28" y="191.24" width="9.44" height="9.44" rx="2.64" fill="#38BDF8" />
  <rect x="893.59" y="191.24" width="9.44" height="9.44" rx="2.64" fill="#38BDF8" />
  <rect x="921.90" y="191.24" width="9.44" height="9.44" rx="2.64" fill="#38BDF8" />
  <rect x="940.77" y="191.24" width="9.44" height="9.44" rx="2.64" fill="#38BDF8" />
  <rect x="789.79" y="200.68" width="9.44" height="9.44" rx="2.64" fill="#38BDF8" />
  <rect x="808.67" y="200.68" width="9.44" height="9.44" rx="2.64" fill="#38BDF8" />
  <rect x="827.54" y="200.68" width="9.44" height="9.44" rx="2.64" fill="#38BDF8" />
  <rect x="846.41" y="200.68" width="9.44" height="9.44" rx="2.64" fill="#38BDF8" />
  <rect x="884.15" y="200.68" width="9.44" height="9.44" rx="2.64" fill="#38BDF8" />
  <rect x="903.03" y="200.68" width="9.44" height="9.44" rx="2.64" fill="#38BDF8" />
  <rect x="912.46" y="200.68" width="9.44" height="9.44" rx="2.64" fill="#38BDF8" />
  <rect x="931.33" y="200.68" width="9.44" height="9.44" rx="2.64" fill="#38BDF8" />
  <rect x="940.77" y="200.68" width="9.44" height="9.44" rx="2.64" fill="#38BDF8" />
  <rect x="799.23" y="210.12" width="9.44" height="9.44" rx="2.64" fill="#38BDF8" />
  <rect x="808.67" y="210.12" width="9.44" height="9.44" rx="2.64" fill="#38BDF8" />
  <rect x="836.97" y="210.12" width="9.44" height="9.44" rx="2.64" fill="#38BDF8" />
  <rect x="874.72" y="210.12" width="9.44" height="9.44" rx="2.64" fill="#38BDF8" />
  <rect x="893.59" y="210.12" width="9.44" height="9.44" rx="2.64" fill="#38BDF8" />
  <rect x="921.90" y="210.12" width="9.44" height="9.44" rx="2.64" fill="#38BDF8" />
  <rect x="931.33" y="210.12" width="9.44" height="9.44" rx="2.64" fill="#38BDF8" />
  <rect x="940.77" y="210.12" width="9.44" height="9.44" rx="2.64" fill="#38BDF8" />
  <rect x="799.23" y="219.55" width="9.44" height="9.44" rx="2.64" fill="#38BDF8" />
  <rect x="818.10" y="219.55" width="9.44" height="9.44" rx="2.64" fill="#38BDF8" />
  <rect x="827.54" y="219.55" width="9.44" height="9.44" rx="2.64" fill="#38BDF8" />
  <rect x="846.41" y="219.55" width="9.44" height="9.44" rx="2.64" fill="#38BDF8" />
  <rect x="893.59" y="219.55" width="9.44" height="9.44" rx="2.64" fill="#38BDF8" />
  <rect x="903.03" y="219.55" width="9.44" height="9.44" rx="2.64" fill="#38BDF8" />
  <rect x="931.33" y="219.55" width="9.44" height="9.44" rx="2.64" fill="#38BDF8" />
  <rect x="789.79" y="228.99" width="9.44" height="9.44" rx="2.64" fill="#38BDF8" />
  <rect x="799.23" y="228.99" width="9.44" height="9.44" rx="2.64" fill="#38BDF8" />
  <rect x="808.67" y="228.99" width="9.44" height="9.44" rx="2.64" fill="#38BDF8" />
  <rect x="818.10" y="228.99" width="9.44" height="9.44" rx="2.64" fill="#38BDF8" />
  <rect x="827.54" y="228.99" width="9.44" height="9.44" rx="2.64" fill="#38BDF8" />
  <rect x="846.41" y="228.99" width="9.44" height="9.44" rx="2.64" fill="#38BDF8" />
  <rect x="855.85" y="228.99" width="9.44" height="9.44" rx="2.64" fill="#38BDF8" />
  <rect x="865.28" y="228.99" width="9.44" height="9.44" rx="2.64" fill="#38BDF8" />
  <rect x="884.15" y="228.99" width="9.44" height="9.44" rx="2.64" fill="#38BDF8" />
  <rect x="912.46" y="228.99" width="9.44" height="9.44" rx="2.64" fill="#38BDF8" />
  <rect x="921.90" y="228.99" width="9.44" height="9.44" rx="2.64" fill="#38BDF8" />
  <rect x="940.77" y="228.99" width="9.44" height="9.44" rx="2.64" fill="#38BDF8" />
  <rect x="789.79" y="238.42" width="9.44" height="9.44" rx="2.64" fill="#38BDF8" />
  <rect x="808.67" y="238.42" width="9.44" height="9.44" rx="2.64" fill="#38BDF8" />
  <rect x="827.54" y="238.42" width="9.44" height="9.44" rx="2.64" fill="#38BDF8" />
  <rect x="846.41" y="238.42" width="9.44" height="9.44" rx="2.64" fill="#38BDF8" />
  <rect x="865.28" y="238.42" width="9.44" height="9.44" rx="2.64" fill="#38BDF8" />
  <rect x="884.15" y="238.42" width="9.44" height="9.44" rx="2.64" fill="#38BDF8" />
  <rect x="903.03" y="238.42" width="9.44" height="9.44" rx="2.64" fill="#38BDF8" />
  <rect x="921.90" y="238.42" width="9.44" height="9.44" rx="2.64" fill="#38BDF8" />
  <rect x="940.77" y="238.42" width="9.44" height="9.44" rx="2.64" fill="#38BDF8" />
  <rect x="789.79" y="247.86" width="9.44" height="9.44" rx="2.64" fill="#38BDF8" />
  <rect x="799.23" y="247.86" width="9.44" height="9.44" rx="2.64" fill="#38BDF8" />
  <rect x="846.41" y="247.86" width="9.44" height="9.44" rx="2.64" fill="#38BDF8" />
  <rect x="855.85" y="247.86" width="9.44" height="9.44" rx="2.64" fill="#38BDF8" />
  <rect x="912.46" y="247.86" width="9.44" height="9.44" rx="2.64" fill="#38BDF8" />
  <rect x="921.90" y="247.86" width="9.44" height="9.44" rx="2.64" fill="#38BDF8" />
  <rect x="931.33" y="247.86" width="9.44" height="9.44" rx="2.64" fill="#38BDF8" />
  <rect x="940.77" y="247.86" width="9.44" height="9.44" rx="2.64" fill="#38BDF8" />
  <rect x="733.18" y="257.29" width="9.44" height="9.44" rx="2.64" fill="#38BDF8" />
  <rect x="742.62" y="257.29" width="9.44" height="9.44" rx="2.64" fill="#38BDF8" />
  <rect x="752.05" y="257.29" width="9.44" height="9.44" rx="2.64" fill="#38BDF8" />
  <rect x="770.92" y="257.29" width="9.44" height="9.44" rx="2.64" fill="#38BDF8" />
  <rect x="789.79" y="257.29" width="9.44" height="9.44" rx="2.64" fill="#38BDF8" />
  <rect x="818.10" y="257.29" width="9.44" height="9.44" rx="2.64" fill="#38BDF8" />
  <rect x="827.54" y="257.29" width="9.44" height="9.44" rx="2.64" fill="#38BDF8" />
  <rect x="836.97" y="257.29" width="9.44" height="9.44" rx="2.64" fill="#38BDF8" />
  <rect x="855.85" y="257.29" width="9.44" height="9.44" rx="2.64" fill="#38BDF8" />
  <rect x="865.28" y="257.29" width="9.44" height="9.44" rx="2.64" fill="#38BDF8" />
  <rect x="884.15" y="257.29" width="9.44" height="9.44" rx="2.64" fill="#38BDF8" />
  <rect x="940.77" y="257.29" width="9.44" height="9.44" rx="2.64" fill="#38BDF8" />
  <rect x="950.21" y="257.29" width="9.44" height="9.44" rx="2.64" fill="#38BDF8" />
  <rect x="959.64" y="257.29" width="9.44" height="9.44" rx="2.64" fill="#38BDF8" />
  <rect x="969.08" y="257.29" width="9.44" height="9.44" rx="2.64" fill="#38BDF8" />
  <rect x="997.38" y="257.29" width="9.44" height="9.44" rx="2.64" fill="#38BDF8" />
  <rect x="1006.82" y="257.29" width="9.44" height="9.44" rx="2.64" fill="#38BDF8" />
  <rect x="1016.26" y="257.29" width="9.44" height="9.44" rx="2.64" fill="#38BDF8" />
  <rect x="714.31" y="266.73" width="9.44" height="9.44" rx="2.64" fill="#38BDF8" />
  <rect x="723.74" y="266.73" width="9.44" height="9.44" rx="2.64" fill="#38BDF8" />
  <rect x="742.62" y="266.73" width="9.44" height="9.44" rx="2.64" fill="#38BDF8" />
  <rect x="780.36" y="266.73" width="9.44" height="9.44" rx="2.64" fill="#38BDF8" />
  <rect x="789.79" y="266.73" width="9.44" height="9.44" rx="2.64" fill="#38BDF8" />
  <rect x="799.23" y="266.73" width="9.44" height="9.44" rx="2.64" fill="#38BDF8" />
  <rect x="855.85" y="266.73" width="9.44" height="9.44" rx="2.64" fill="#38BDF8" />
  <rect x="874.72" y="266.73" width="9.44" height="9.44" rx="2.64" fill="#38BDF8" />
  <rect x="884.15" y="266.73" width="9.44" height="9.44" rx="2.64" fill="#38BDF8" />
  <rect x="893.59" y="266.73" width="9.44" height="9.44" rx="2.64" fill="#38BDF8" />
  <rect x="903.03" y="266.73" width="9.44" height="9.44" rx="2.64" fill="#38BDF8" />
  <rect x="912.46" y="266.73" width="9.44" height="9.44" rx="2.64" fill="#38BDF8" />
  <rect x="931.33" y="266.73" width="9.44" height="9.44" rx="2.64" fill="#38BDF8" />
  <rect x="950.21" y="266.73" width="9.44" height="9.44" rx="2.64" fill="#38BDF8" />
  <rect x="959.64" y="266.73" width="9.44" height="9.44" rx="2.64" fill="#38BDF8" />
  <rect x="987.95" y="266.73" width="9.44" height="9.44" rx="2.64" fill="#38BDF8" />
  <rect x="997.38" y="266.73" width="9.44" height="9.44" rx="2.64" fill="#38BDF8" />
  <rect x="1006.82" y="266.73" width="9.44" height="9.44" rx="2.64" fill="#38BDF8" />
  <rect x="1016.26" y="266.73" width="9.44" height="9.44" rx="2.64" fill="#38BDF8" />
  <rect x="714.31" y="276.17" width="9.44" height="9.44" rx="2.64" fill="#38BDF8" />
  <rect x="723.74" y="276.17" width="9.44" height="9.44" rx="2.64" fill="#38BDF8" />
  <rect x="733.18" y="276.17" width="9.44" height="9.44" rx="2.64" fill="#38BDF8" />
  <rect x="742.62" y="276.17" width="9.44" height="9.44" rx="2.64" fill="#38BDF8" />
  <rect x="752.05" y="276.17" width="9.44" height="9.44" rx="2.64" fill="#38BDF8" />
  <rect x="761.49" y="276.17" width="9.44" height="9.44" rx="2.64" fill="#38BDF8" />
  <rect x="770.92" y="276.17" width="9.44" height="9.44" rx="2.64" fill="#38BDF8" />
  <rect x="808.67" y="276.17" width="9.44" height="9.44" rx="2.64" fill="#38BDF8" />
  <rect x="855.85" y="276.17" width="9.44" height="9.44" rx="2.64" fill="#38BDF8" />
  <rect x="865.28" y="276.17" width="9.44" height="9.44" rx="2.64" fill="#38BDF8" />
  <rect x="884.15" y="276.17" width="9.44" height="9.44" rx="2.64" fill="#38BDF8" />
  <rect x="893.59" y="276.17" width="9.44" height="9.44" rx="2.64" fill="#38BDF8" />
  <rect x="912.46" y="276.17" width="9.44" height="9.44" rx="2.64" fill="#38BDF8" />
  <rect x="950.21" y="276.17" width="9.44" height="9.44" rx="2.64" fill="#38BDF8" />
  <rect x="959.64" y="276.17" width="9.44" height="9.44" rx="2.64" fill="#38BDF8" />
  <rect x="969.08" y="276.17" width="9.44" height="9.44" rx="2.64" fill="#38BDF8" />
  <rect x="997.38" y="276.17" width="9.44" height="9.44" rx="2.64" fill="#38BDF8" />
  <rect x="1006.82" y="276.17" width="9.44" height="9.44" rx="2.64" fill="#38BDF8" />
  <rect x="723.74" y="285.60" width="9.44" height="9.44" rx="2.64" fill="#38BDF8" />
  <rect x="780.36" y="285.60" width="9.44" height="9.44" rx="2.64" fill="#38BDF8" />
  <rect x="808.67" y="285.60" width="9.44" height="9.44" rx="2.64" fill="#38BDF8" />
  <rect x="818.10" y="285.60" width="9.44" height="9.44" rx="2.64" fill="#38BDF8" />
  <rect x="846.41" y="285.60" width="9.44" height="9.44" rx="2.64" fill="#38BDF8" />
  <rect x="855.85" y="285.60" width="9.44" height="9.44" rx="2.64" fill="#38BDF8" />
  <rect x="865.28" y="285.60" width="9.44" height="9.44" rx="2.64" fill="#38BDF8" />
  <rect x="874.72" y="285.60" width="9.44" height="9.44" rx="2.64" fill="#38BDF8" />
  <rect x="903.03" y="285.60" width="9.44" height="9.44" rx="2.64" fill="#38BDF8" />
  <rect x="912.46" y="285.60" width="9.44" height="9.44" rx="2.64" fill="#38BDF8" />
  <rect x="921.90" y="285.60" width="9.44" height="9.44" rx="2.64" fill="#38BDF8" />
  <rect x="931.33" y="285.60" width="9.44" height="9.44" rx="2.64" fill="#38BDF8" />
  <rect x="959.64" y="285.60" width="9.44" height="9.44" rx="2.64" fill="#38BDF8" />
  <rect x="987.95" y="285.60" width="9.44" height="9.44" rx="2.64" fill="#38BDF8" />
  <rect x="997.38" y="285.60" width="9.44" height="9.44" rx="2.64" fill="#38BDF8" />
  <rect x="1006.82" y="285.60" width="9.44" height="9.44" rx="2.64" fill="#38BDF8" />
  <rect x="1016.26" y="285.60" width="9.44" height="9.44" rx="2.64" fill="#38BDF8" />
  <rect x="733.18" y="295.04" width="9.44" height="9.44" rx="2.64" fill="#38BDF8" />
  <rect x="752.05" y="295.04" width="9.44" height="9.44" rx="2.64" fill="#38BDF8" />
  <rect x="761.49" y="295.04" width="9.44" height="9.44" rx="2.64" fill="#38BDF8" />
  <rect x="770.92" y="295.04" width="9.44" height="9.44" rx="2.64" fill="#38BDF8" />
  <rect x="808.67" y="295.04" width="9.44" height="9.44" rx="2.64" fill="#38BDF8" />
  <rect x="818.10" y="295.04" width="9.44" height="9.44" rx="2.64" fill="#38BDF8" />
  <rect x="836.97" y="295.04" width="9.44" height="9.44" rx="2.64" fill="#38BDF8" />
  <rect x="865.28" y="295.04" width="9.44" height="9.44" rx="2.64" fill="#38BDF8" />
  <rect x="874.72" y="295.04" width="9.44" height="9.44" rx="2.64" fill="#38BDF8" />
  <rect x="893.59" y="295.04" width="9.44" height="9.44" rx="2.64" fill="#38BDF8" />
  <rect x="903.03" y="295.04" width="9.44" height="9.44" rx="2.64" fill="#38BDF8" />
  <rect x="912.46" y="295.04" width="9.44" height="9.44" rx="2.64" fill="#38BDF8" />
  <rect x="931.33" y="295.04" width="9.44" height="9.44" rx="2.64" fill="#38BDF8" />
  <rect x="940.77" y="295.04" width="9.44" height="9.44" rx="2.64" fill="#38BDF8" />
  <rect x="950.21" y="295.04" width="9.44" height="9.44" rx="2.64" fill="#38BDF8" />
  <rect x="969.08" y="295.04" width="9.44" height="9.44" rx="2.64" fill="#38BDF8" />
  <rect x="978.51" y="295.04" width="9.44" height="9.44" rx="2.64" fill="#38BDF8" />
  <rect x="1006.82" y="295.04" width="9.44" height="9.44" rx="2.64" fill="#38BDF8" />
  <rect x="723.74" y="304.47" width="9.44" height="9.44" rx="2.64" fill="#38BDF8" />
  <rect x="733.18" y="304.47" width="9.44" height="9.44" rx="2.64" fill="#38BDF8" />
  <rect x="752.05" y="304.47" width="9.44" height="9.44" rx="2.64" fill="#38BDF8" />
  <rect x="761.49" y="304.47" width="9.44" height="9.44" rx="2.64" fill="#38BDF8" />
  <rect x="789.79" y="304.47" width="9.44" height="9.44" rx="2.64" fill="#38BDF8" />
  <rect x="799.23" y="304.47" width="9.44" height="9.44" rx="2.64" fill="#38BDF8" />
  <rect x="808.67" y="304.47" width="9.44" height="9.44" rx="2.64" fill="#38BDF8" />
  <rect x="818.10" y="304.47" width="9.44" height="9.44" rx="2.64" fill="#38BDF8" />
  <rect x="827.54" y="304.47" width="9.44" height="9.44" rx="2.64" fill="#38BDF8" />
  <rect x="903.03" y="304.47" width="9.44" height="9.44" rx="2.64" fill="#38BDF8" />
  <rect x="931.33" y="304.47" width="9.44" height="9.44" rx="2.64" fill="#38BDF8" />
  <rect x="959.64" y="304.47" width="9.44" height="9.44" rx="2.64" fill="#38BDF8" />
  <rect x="987.95" y="304.47" width="9.44" height="9.44" rx="2.64" fill="#38BDF8" />
  <rect x="1016.26" y="304.47" width="9.44" height="9.44" rx="2.64" fill="#38BDF8" />
  <rect x="714.31" y="313.91" width="9.44" height="9.44" rx="2.64" fill="#38BDF8" />
  <rect x="723.74" y="313.91" width="9.44" height="9.44" rx="2.64" fill="#38BDF8" />
  <rect x="742.62" y="313.91" width="9.44" height="9.44" rx="2.64" fill="#38BDF8" />
  <rect x="770.92" y="313.91" width="9.44" height="9.44" rx="2.64" fill="#38BDF8" />
  <rect x="789.79" y="313.91" width="9.44" height="9.44" rx="2.64" fill="#38BDF8" />
  <rect x="799.23" y="313.91" width="9.44" height="9.44" rx="2.64" fill="#38BDF8" />
  <rect x="818.10" y="313.91" width="9.44" height="9.44" rx="2.64" fill="#38BDF8" />
  <rect x="827.54" y="313.91" width="9.44" height="9.44" rx="2.64" fill="#38BDF8" />
  <rect x="903.03" y="313.91" width="9.44" height="9.44" rx="2.64" fill="#38BDF8" />
  <rect x="921.90" y="313.91" width="9.44" height="9.44" rx="2.64" fill="#38BDF8" />
  <rect x="950.21" y="313.91" width="9.44" height="9.44" rx="2.64" fill="#38BDF8" />
  <rect x="959.64" y="313.91" width="9.44" height="9.44" rx="2.64" fill="#38BDF8" />
  <rect x="1006.82" y="313.91" width="9.44" height="9.44" rx="2.64" fill="#38BDF8" />
  <rect x="714.31" y="323.35" width="9.44" height="9.44" rx="2.64" fill="#38BDF8" />
  <rect x="723.74" y="323.35" width="9.44" height="9.44" rx="2.64" fill="#38BDF8" />
  <rect x="752.05" y="323.35" width="9.44" height="9.44" rx="2.64" fill="#38BDF8" />
  <rect x="799.23" y="323.35" width="9.44" height="9.44" rx="2.64" fill="#38BDF8" />
  <rect x="808.67" y="323.35" width="9.44" height="9.44" rx="2.64" fill="#38BDF8" />
  <rect x="818.10" y="323.35" width="9.44" height="9.44" rx="2.64" fill="#38BDF8" />
  <rect x="912.46" y="323.35" width="9.44" height="9.44" rx="2.64" fill="#38BDF8" />
  <rect x="921.90" y="323.35" width="9.44" height="9.44" rx="2.64" fill="#38BDF8" />
  <rect x="940.77" y="323.35" width="9.44" height="9.44" rx="2.64" fill="#38BDF8" />
  <rect x="959.64" y="323.35" width="9.44" height="9.44" rx="2.64" fill="#38BDF8" />
  <rect x="978.51" y="323.35" width="9.44" height="9.44" rx="2.64" fill="#38BDF8" />
  <rect x="997.38" y="323.35" width="9.44" height="9.44" rx="2.64" fill="#38BDF8" />
  <rect x="1006.82" y="323.35" width="9.44" height="9.44" rx="2.64" fill="#38BDF8" />
  <rect x="714.31" y="332.78" width="9.44" height="9.44" rx="2.64" fill="#38BDF8" />
  <rect x="723.74" y="332.78" width="9.44" height="9.44" rx="2.64" fill="#38BDF8" />
  <rect x="742.62" y="332.78" width="9.44" height="9.44" rx="2.64" fill="#38BDF8" />
  <rect x="761.49" y="332.78" width="9.44" height="9.44" rx="2.64" fill="#38BDF8" />
  <rect x="770.92" y="332.78" width="9.44" height="9.44" rx="2.64" fill="#38BDF8" />
  <rect x="789.79" y="332.78" width="9.44" height="9.44" rx="2.64" fill="#38BDF8" />
  <rect x="808.67" y="332.78" width="9.44" height="9.44" rx="2.64" fill="#38BDF8" />
  <rect x="931.33" y="332.78" width="9.44" height="9.44" rx="2.64" fill="#38BDF8" />
  <rect x="950.21" y="332.78" width="9.44" height="9.44" rx="2.64" fill="#38BDF8" />
  <rect x="969.08" y="332.78" width="9.44" height="9.44" rx="2.64" fill="#38BDF8" />
  <rect x="978.51" y="332.78" width="9.44" height="9.44" rx="2.64" fill="#38BDF8" />
  <rect x="714.31" y="342.22" width="9.44" height="9.44" rx="2.64" fill="#38BDF8" />
  <rect x="723.74" y="342.22" width="9.44" height="9.44" rx="2.64" fill="#38BDF8" />
  <rect x="733.18" y="342.22" width="9.44" height="9.44" rx="2.64" fill="#38BDF8" />
  <rect x="752.05" y="342.22" width="9.44" height="9.44" rx="2.64" fill="#38BDF8" />
  <rect x="761.49" y="342.22" width="9.44" height="9.44" rx="2.64" fill="#38BDF8" />
  <rect x="931.33" y="342.22" width="9.44" height="9.44" rx="2.64" fill="#38BDF8" />
  <rect x="940.77" y="342.22" width="9.44" height="9.44" rx="2.64" fill="#38BDF8" />
  <rect x="959.64" y="342.22" width="9.44" height="9.44" rx="2.64" fill="#38BDF8" />
  <rect x="969.08" y="342.22" width="9.44" height="9.44" rx="2.64" fill="#38BDF8" />
  <rect x="1016.26" y="342.22" width="9.44" height="9.44" rx="2.64" fill="#38BDF8" />
  <rect x="723.74" y="351.65" width="9.44" height="9.44" rx="2.64" fill="#38BDF8" />
  <rect x="733.18" y="351.65" width="9.44" height="9.44" rx="2.64" fill="#38BDF8" />
  <rect x="752.05" y="351.65" width="9.44" height="9.44" rx="2.64" fill="#38BDF8" />
  <rect x="770.92" y="351.65" width="9.44" height="9.44" rx="2.64" fill="#38BDF8" />
  <rect x="780.36" y="351.65" width="9.44" height="9.44" rx="2.64" fill="#38BDF8" />
  <rect x="789.79" y="351.65" width="9.44" height="9.44" rx="2.64" fill="#38BDF8" />
  <rect x="808.67" y="351.65" width="9.44" height="9.44" rx="2.64" fill="#38BDF8" />
  <rect x="827.54" y="351.65" width="9.44" height="9.44" rx="2.64" fill="#38BDF8" />
  <rect x="903.03" y="351.65" width="9.44" height="9.44" rx="2.64" fill="#38BDF8" />
  <rect x="959.64" y="351.65" width="9.44" height="9.44" rx="2.64" fill="#38BDF8" />
  <rect x="969.08" y="351.65" width="9.44" height="9.44" rx="2.64" fill="#38BDF8" />
  <rect x="978.51" y="351.65" width="9.44" height="9.44" rx="2.64" fill="#38BDF8" />
  <rect x="997.38" y="351.65" width="9.44" height="9.44" rx="2.64" fill="#38BDF8" />
  <rect x="1006.82" y="351.65" width="9.44" height="9.44" rx="2.64" fill="#38BDF8" />
  <rect x="723.74" y="361.09" width="9.44" height="9.44" rx="2.64" fill="#38BDF8" />
  <rect x="752.05" y="361.09" width="9.44" height="9.44" rx="2.64" fill="#38BDF8" />
  <rect x="780.36" y="361.09" width="9.44" height="9.44" rx="2.64" fill="#38BDF8" />
  <rect x="789.79" y="361.09" width="9.44" height="9.44" rx="2.64" fill="#38BDF8" />
  <rect x="799.23" y="361.09" width="9.44" height="9.44" rx="2.64" fill="#38BDF8" />
  <rect x="827.54" y="361.09" width="9.44" height="9.44" rx="2.64" fill="#38BDF8" />
  <rect x="903.03" y="361.09" width="9.44" height="9.44" rx="2.64" fill="#38BDF8" />
  <rect x="912.46" y="361.09" width="9.44" height="9.44" rx="2.64" fill="#38BDF8" />
  <rect x="921.90" y="361.09" width="9.44" height="9.44" rx="2.64" fill="#38BDF8" />
  <rect x="931.33" y="361.09" width="9.44" height="9.44" rx="2.64" fill="#38BDF8" />
  <rect x="940.77" y="361.09" width="9.44" height="9.44" rx="2.64" fill="#38BDF8" />
  <rect x="978.51" y="361.09" width="9.44" height="9.44" rx="2.64" fill="#38BDF8" />
  <rect x="987.95" y="361.09" width="9.44" height="9.44" rx="2.64" fill="#38BDF8" />
  <rect x="997.38" y="361.09" width="9.44" height="9.44" rx="2.64" fill="#38BDF8" />
  <rect x="1006.82" y="361.09" width="9.44" height="9.44" rx="2.64" fill="#38BDF8" />
  <rect x="723.74" y="370.53" width="9.44" height="9.44" rx="2.64" fill="#38BDF8" />
  <rect x="742.62" y="370.53" width="9.44" height="9.44" rx="2.64" fill="#38BDF8" />
  <rect x="752.05" y="370.53" width="9.44" height="9.44" rx="2.64" fill="#38BDF8" />
  <rect x="761.49" y="370.53" width="9.44" height="9.44" rx="2.64" fill="#38BDF8" />
  <rect x="770.92" y="370.53" width="9.44" height="9.44" rx="2.64" fill="#38BDF8" />
  <rect x="818.10" y="370.53" width="9.44" height="9.44" rx="2.64" fill="#38BDF8" />
  <rect x="836.97" y="370.53" width="9.44" height="9.44" rx="2.64" fill="#38BDF8" />
  <rect x="855.85" y="370.53" width="9.44" height="9.44" rx="2.64" fill="#38BDF8" />
  <rect x="874.72" y="370.53" width="9.44" height="9.44" rx="2.64" fill="#38BDF8" />
  <rect x="884.15" y="370.53" width="9.44" height="9.44" rx="2.64" fill="#38BDF8" />
  <rect x="893.59" y="370.53" width="9.44" height="9.44" rx="2.64" fill="#38BDF8" />
  <rect x="903.03" y="370.53" width="9.44" height="9.44" rx="2.64" fill="#38BDF8" />
  <rect x="921.90" y="370.53" width="9.44" height="9.44" rx="2.64" fill="#38BDF8" />
  <rect x="950.21" y="370.53" width="9.44" height="9.44" rx="2.64" fill="#38BDF8" />
  <rect x="969.08" y="370.53" width="9.44" height="9.44" rx="2.64" fill="#38BDF8" />
  <rect x="978.51" y="370.53" width="9.44" height="9.44" rx="2.64" fill="#38BDF8" />
  <rect x="987.95" y="370.53" width="9.44" height="9.44" rx="2.64" fill="#38BDF8" />
  <rect x="1016.26" y="370.53" width="9.44" height="9.44" rx="2.64" fill="#38BDF8" />
  <rect x="714.31" y="379.96" width="9.44" height="9.44" rx="2.64" fill="#38BDF8" />
  <rect x="723.74" y="379.96" width="9.44" height="9.44" rx="2.64" fill="#38BDF8" />
  <rect x="742.62" y="379.96" width="9.44" height="9.44" rx="2.64" fill="#38BDF8" />
  <rect x="789.79" y="379.96" width="9.44" height="9.44" rx="2.64" fill="#38BDF8" />
  <rect x="827.54" y="379.96" width="9.44" height="9.44" rx="2.64" fill="#38BDF8" />
  <rect x="836.97" y="379.96" width="9.44" height="9.44" rx="2.64" fill="#38BDF8" />
  <rect x="846.41" y="379.96" width="9.44" height="9.44" rx="2.64" fill="#38BDF8" />
  <rect x="874.72" y="379.96" width="9.44" height="9.44" rx="2.64" fill="#38BDF8" />
  <rect x="893.59" y="379.96" width="9.44" height="9.44" rx="2.64" fill="#38BDF8" />
  <rect x="903.03" y="379.96" width="9.44" height="9.44" rx="2.64" fill="#38BDF8" />
  <rect x="931.33" y="379.96" width="9.44" height="9.44" rx="2.64" fill="#38BDF8" />
  <rect x="959.64" y="379.96" width="9.44" height="9.44" rx="2.64" fill="#38BDF8" />
  <rect x="969.08" y="379.96" width="9.44" height="9.44" rx="2.64" fill="#38BDF8" />
  <rect x="987.95" y="379.96" width="9.44" height="9.44" rx="2.64" fill="#38BDF8" />
  <rect x="997.38" y="379.96" width="9.44" height="9.44" rx="2.64" fill="#38BDF8" />
  <rect x="1016.26" y="379.96" width="9.44" height="9.44" rx="2.64" fill="#38BDF8" />
  <rect x="714.31" y="389.40" width="9.44" height="9.44" rx="2.64" fill="#38BDF8" />
  <rect x="733.18" y="389.40" width="9.44" height="9.44" rx="2.64" fill="#38BDF8" />
  <rect x="742.62" y="389.40" width="9.44" height="9.44" rx="2.64" fill="#38BDF8" />
  <rect x="761.49" y="389.40" width="9.44" height="9.44" rx="2.64" fill="#38BDF8" />
  <rect x="770.92" y="389.40" width="9.44" height="9.44" rx="2.64" fill="#38BDF8" />
  <rect x="789.79" y="389.40" width="9.44" height="9.44" rx="2.64" fill="#38BDF8" />
  <rect x="808.67" y="389.40" width="9.44" height="9.44" rx="2.64" fill="#38BDF8" />
  <rect x="818.10" y="389.40" width="9.44" height="9.44" rx="2.64" fill="#38BDF8" />
  <rect x="836.97" y="389.40" width="9.44" height="9.44" rx="2.64" fill="#38BDF8" />
  <rect x="893.59" y="389.40" width="9.44" height="9.44" rx="2.64" fill="#38BDF8" />
  <rect x="903.03" y="389.40" width="9.44" height="9.44" rx="2.64" fill="#38BDF8" />
  <rect x="921.90" y="389.40" width="9.44" height="9.44" rx="2.64" fill="#38BDF8" />
  <rect x="978.51" y="389.40" width="9.44" height="9.44" rx="2.64" fill="#38BDF8" />
  <rect x="987.95" y="389.40" width="9.44" height="9.44" rx="2.64" fill="#38BDF8" />
  <rect x="1006.82" y="389.40" width="9.44" height="9.44" rx="2.64" fill="#38BDF8" />
  <rect x="714.31" y="398.83" width="9.44" height="9.44" rx="2.64" fill="#38BDF8" />
  <rect x="742.62" y="398.83" width="9.44" height="9.44" rx="2.64" fill="#38BDF8" />
  <rect x="752.05" y="398.83" width="9.44" height="9.44" rx="2.64" fill="#38BDF8" />
  <rect x="780.36" y="398.83" width="9.44" height="9.44" rx="2.64" fill="#38BDF8" />
  <rect x="799.23" y="398.83" width="9.44" height="9.44" rx="2.64" fill="#38BDF8" />
  <rect x="827.54" y="398.83" width="9.44" height="9.44" rx="2.64" fill="#38BDF8" />
  <rect x="836.97" y="398.83" width="9.44" height="9.44" rx="2.64" fill="#38BDF8" />
  <rect x="855.85" y="398.83" width="9.44" height="9.44" rx="2.64" fill="#38BDF8" />
  <rect x="874.72" y="398.83" width="9.44" height="9.44" rx="2.64" fill="#38BDF8" />
  <rect x="912.46" y="398.83" width="9.44" height="9.44" rx="2.64" fill="#38BDF8" />
  <rect x="921.90" y="398.83" width="9.44" height="9.44" rx="2.64" fill="#38BDF8" />
  <rect x="940.77" y="398.83" width="9.44" height="9.44" rx="2.64" fill="#38BDF8" />
  <rect x="987.95" y="398.83" width="9.44" height="9.44" rx="2.64" fill="#38BDF8" />
  <rect x="997.38" y="398.83" width="9.44" height="9.44" rx="2.64" fill="#38BDF8" />
  <rect x="1006.82" y="398.83" width="9.44" height="9.44" rx="2.64" fill="#38BDF8" />
  <rect x="714.31" y="408.27" width="9.44" height="9.44" rx="2.64" fill="#38BDF8" />
  <rect x="733.18" y="408.27" width="9.44" height="9.44" rx="2.64" fill="#38BDF8" />
  <rect x="742.62" y="408.27" width="9.44" height="9.44" rx="2.64" fill="#38BDF8" />
  <rect x="770.92" y="408.27" width="9.44" height="9.44" rx="2.64" fill="#38BDF8" />
  <rect x="780.36" y="408.27" width="9.44" height="9.44" rx="2.64" fill="#38BDF8" />
  <rect x="789.79" y="408.27" width="9.44" height="9.44" rx="2.64" fill="#38BDF8" />
  <rect x="799.23" y="408.27" width="9.44" height="9.44" rx="2.64" fill="#38BDF8" />
  <rect x="818.10" y="408.27" width="9.44" height="9.44" rx="2.64" fill="#38BDF8" />
  <rect x="827.54" y="408.27" width="9.44" height="9.44" rx="2.64" fill="#38BDF8" />
  <rect x="836.97" y="408.27" width="9.44" height="9.44" rx="2.64" fill="#38BDF8" />
  <rect x="855.85" y="408.27" width="9.44" height="9.44" rx="2.64" fill="#38BDF8" />
  <rect x="865.28" y="408.27" width="9.44" height="9.44" rx="2.64" fill="#38BDF8" />
  <rect x="874.72" y="408.27" width="9.44" height="9.44" rx="2.64" fill="#38BDF8" />
  <rect x="884.15" y="408.27" width="9.44" height="9.44" rx="2.64" fill="#38BDF8" />
  <rect x="903.03" y="408.27" width="9.44" height="9.44" rx="2.64" fill="#38BDF8" />
  <rect x="921.90" y="408.27" width="9.44" height="9.44" rx="2.64" fill="#38BDF8" />
  <rect x="931.33" y="408.27" width="9.44" height="9.44" rx="2.64" fill="#38BDF8" />
  <rect x="940.77" y="408.27" width="9.44" height="9.44" rx="2.64" fill="#38BDF8" />
  <rect x="950.21" y="408.27" width="9.44" height="9.44" rx="2.64" fill="#38BDF8" />
  <rect x="959.64" y="408.27" width="9.44" height="9.44" rx="2.64" fill="#38BDF8" />
  <rect x="969.08" y="408.27" width="9.44" height="9.44" rx="2.64" fill="#38BDF8" />
  <rect x="978.51" y="408.27" width="9.44" height="9.44" rx="2.64" fill="#38BDF8" />
  <rect x="987.95" y="408.27" width="9.44" height="9.44" rx="2.64" fill="#38BDF8" />
  <rect x="1006.82" y="408.27" width="9.44" height="9.44" rx="2.64" fill="#38BDF8" />
  <rect x="789.79" y="417.71" width="9.44" height="9.44" rx="2.64" fill="#38BDF8" />
  <rect x="808.67" y="417.71" width="9.44" height="9.44" rx="2.64" fill="#38BDF8" />
  <rect x="818.10" y="417.71" width="9.44" height="9.44" rx="2.64" fill="#38BDF8" />
  <rect x="827.54" y="417.71" width="9.44" height="9.44" rx="2.64" fill="#38BDF8" />
  <rect x="846.41" y="417.71" width="9.44" height="9.44" rx="2.64" fill="#38BDF8" />
  <rect x="884.15" y="417.71" width="9.44" height="9.44" rx="2.64" fill="#38BDF8" />
  <rect x="893.59" y="417.71" width="9.44" height="9.44" rx="2.64" fill="#38BDF8" />
  <rect x="940.77" y="417.71" width="9.44" height="9.44" rx="2.64" fill="#38BDF8" />
  <rect x="978.51" y="417.71" width="9.44" height="9.44" rx="2.64" fill="#38BDF8" />
  <rect x="1006.82" y="417.71" width="9.44" height="9.44" rx="2.64" fill="#38BDF8" />
  <rect x="1016.26" y="417.71" width="9.44" height="9.44" rx="2.64" fill="#38BDF8" />
  <rect x="799.23" y="427.14" width="9.44" height="9.44" rx="2.64" fill="#38BDF8" />
  <rect x="874.72" y="427.14" width="9.44" height="9.44" rx="2.64" fill="#38BDF8" />
  <rect x="884.15" y="427.14" width="9.44" height="9.44" rx="2.64" fill="#38BDF8" />
  <rect x="893.59" y="427.14" width="9.44" height="9.44" rx="2.64" fill="#38BDF8" />
  <rect x="903.03" y="427.14" width="9.44" height="9.44" rx="2.64" fill="#38BDF8" />
  <rect x="921.90" y="427.14" width="9.44" height="9.44" rx="2.64" fill="#38BDF8" />
  <rect x="931.33" y="427.14" width="9.44" height="9.44" rx="2.64" fill="#38BDF8" />
  <rect x="940.77" y="427.14" width="9.44" height="9.44" rx="2.64" fill="#38BDF8" />
  <rect x="959.64" y="427.14" width="9.44" height="9.44" rx="2.64" fill="#38BDF8" />
  <rect x="978.51" y="427.14" width="9.44" height="9.44" rx="2.64" fill="#38BDF8" />
  <rect x="987.95" y="427.14" width="9.44" height="9.44" rx="2.64" fill="#38BDF8" />
  <rect x="997.38" y="427.14" width="9.44" height="9.44" rx="2.64" fill="#38BDF8" />
  <rect x="1006.82" y="427.14" width="9.44" height="9.44" rx="2.64" fill="#38BDF8" />
  <rect x="799.23" y="436.58" width="9.44" height="9.44" rx="2.64" fill="#38BDF8" />
  <rect x="808.67" y="436.58" width="9.44" height="9.44" rx="2.64" fill="#38BDF8" />
  <rect x="827.54" y="436.58" width="9.44" height="9.44" rx="2.64" fill="#38BDF8" />
  <rect x="836.97" y="436.58" width="9.44" height="9.44" rx="2.64" fill="#38BDF8" />
  <rect x="865.28" y="436.58" width="9.44" height="9.44" rx="2.64" fill="#38BDF8" />
  <rect x="884.15" y="436.58" width="9.44" height="9.44" rx="2.64" fill="#38BDF8" />
  <rect x="931.33" y="436.58" width="9.44" height="9.44" rx="2.64" fill="#38BDF8" />
  <rect x="940.77" y="436.58" width="9.44" height="9.44" rx="2.64" fill="#38BDF8" />
  <rect x="978.51" y="436.58" width="9.44" height="9.44" rx="2.64" fill="#38BDF8" />
  <rect x="987.95" y="436.58" width="9.44" height="9.44" rx="2.64" fill="#38BDF8" />
  <rect x="997.38" y="436.58" width="9.44" height="9.44" rx="2.64" fill="#38BDF8" />
  <rect x="1006.82" y="436.58" width="9.44" height="9.44" rx="2.64" fill="#38BDF8" />
  <rect x="1016.26" y="436.58" width="9.44" height="9.44" rx="2.64" fill="#38BDF8" />
  <rect x="789.79" y="446.01" width="9.44" height="9.44" rx="2.64" fill="#38BDF8" />
  <rect x="808.67" y="446.01" width="9.44" height="9.44" rx="2.64" fill="#38BDF8" />
  <rect x="818.10" y="446.01" width="9.44" height="9.44" rx="2.64" fill="#38BDF8" />
  <rect x="846.41" y="446.01" width="9.44" height="9.44" rx="2.64" fill="#38BDF8" />
  <rect x="874.72" y="446.01" width="9.44" height="9.44" rx="2.64" fill="#38BDF8" />
  <rect x="903.03" y="446.01" width="9.44" height="9.44" rx="2.64" fill="#38BDF8" />
  <rect x="912.46" y="446.01" width="9.44" height="9.44" rx="2.64" fill="#38BDF8" />
  <rect x="921.90" y="446.01" width="9.44" height="9.44" rx="2.64" fill="#38BDF8" />
  <rect x="940.77" y="446.01" width="9.44" height="9.44" rx="2.64" fill="#38BDF8" />
  <rect x="950.21" y="446.01" width="9.44" height="9.44" rx="2.64" fill="#38BDF8" />
  <rect x="959.64" y="446.01" width="9.44" height="9.44" rx="2.64" fill="#38BDF8" />
  <rect x="969.08" y="446.01" width="9.44" height="9.44" rx="2.64" fill="#38BDF8" />
  <rect x="978.51" y="446.01" width="9.44" height="9.44" rx="2.64" fill="#38BDF8" />
  <rect x="1006.82" y="446.01" width="9.44" height="9.44" rx="2.64" fill="#38BDF8" />
  <rect x="1016.26" y="446.01" width="9.44" height="9.44" rx="2.64" fill="#38BDF8" />
  <rect x="789.79" y="455.45" width="9.44" height="9.44" rx="2.64" fill="#38BDF8" />
  <rect x="799.23" y="455.45" width="9.44" height="9.44" rx="2.64" fill="#38BDF8" />
  <rect x="818.10" y="455.45" width="9.44" height="9.44" rx="2.64" fill="#38BDF8" />
  <rect x="846.41" y="455.45" width="9.44" height="9.44" rx="2.64" fill="#38BDF8" />
  <rect x="855.85" y="455.45" width="9.44" height="9.44" rx="2.64" fill="#38BDF8" />
  <rect x="884.15" y="455.45" width="9.44" height="9.44" rx="2.64" fill="#38BDF8" />
  <rect x="903.03" y="455.45" width="9.44" height="9.44" rx="2.64" fill="#38BDF8" />
  <rect x="912.46" y="455.45" width="9.44" height="9.44" rx="2.64" fill="#38BDF8" />
  <rect x="931.33" y="455.45" width="9.44" height="9.44" rx="2.64" fill="#38BDF8" />
  <rect x="950.21" y="455.45" width="9.44" height="9.44" rx="2.64" fill="#38BDF8" />
  <rect x="978.51" y="455.45" width="9.44" height="9.44" rx="2.64" fill="#38BDF8" />
  <rect x="987.95" y="455.45" width="9.44" height="9.44" rx="2.64" fill="#38BDF8" />
  <rect x="1016.26" y="455.45" width="9.44" height="9.44" rx="2.64" fill="#38BDF8" />
  <rect x="789.79" y="464.88" width="9.44" height="9.44" rx="2.64" fill="#38BDF8" />
  <rect x="799.23" y="464.88" width="9.44" height="9.44" rx="2.64" fill="#38BDF8" />
  <rect x="808.67" y="464.88" width="9.44" height="9.44" rx="2.64" fill="#38BDF8" />
  <rect x="818.10" y="464.88" width="9.44" height="9.44" rx="2.64" fill="#38BDF8" />
  <rect x="827.54" y="464.88" width="9.44" height="9.44" rx="2.64" fill="#38BDF8" />
  <rect x="846.41" y="464.88" width="9.44" height="9.44" rx="2.64" fill="#38BDF8" />
  <rect x="884.15" y="464.88" width="9.44" height="9.44" rx="2.64" fill="#38BDF8" />
  <rect x="893.59" y="464.88" width="9.44" height="9.44" rx="2.64" fill="#38BDF8" />
  <rect x="903.03" y="464.88" width="9.44" height="9.44" rx="2.64" fill="#38BDF8" />
  <rect x="912.46" y="464.88" width="9.44" height="9.44" rx="2.64" fill="#38BDF8" />
  <rect x="921.90" y="464.88" width="9.44" height="9.44" rx="2.64" fill="#38BDF8" />
  <rect x="940.77" y="464.88" width="9.44" height="9.44" rx="2.64" fill="#38BDF8" />
  <rect x="950.21" y="464.88" width="9.44" height="9.44" rx="2.64" fill="#38BDF8" />
  <rect x="959.64" y="464.88" width="9.44" height="9.44" rx="2.64" fill="#38BDF8" />
  <rect x="987.95" y="464.88" width="9.44" height="9.44" rx="2.64" fill="#38BDF8" />
  <rect x="799.23" y="474.32" width="9.44" height="9.44" rx="2.64" fill="#38BDF8" />
  <rect x="808.67" y="474.32" width="9.44" height="9.44" rx="2.64" fill="#38BDF8" />
  <rect x="836.97" y="474.32" width="9.44" height="9.44" rx="2.64" fill="#38BDF8" />
  <rect x="846.41" y="474.32" width="9.44" height="9.44" rx="2.64" fill="#38BDF8" />
  <rect x="874.72" y="474.32" width="9.44" height="9.44" rx="2.64" fill="#38BDF8" />
  <rect x="884.15" y="474.32" width="9.44" height="9.44" rx="2.64" fill="#38BDF8" />
  <rect x="893.59" y="474.32" width="9.44" height="9.44" rx="2.64" fill="#38BDF8" />
  <rect x="950.21" y="474.32" width="9.44" height="9.44" rx="2.64" fill="#38BDF8" />
  <rect x="959.64" y="474.32" width="9.44" height="9.44" rx="2.64" fill="#38BDF8" />
  <rect x="969.08" y="474.32" width="9.44" height="9.44" rx="2.64" fill="#38BDF8" />
  <rect x="987.95" y="474.32" width="9.44" height="9.44" rx="2.64" fill="#38BDF8" />
  <rect x="997.38" y="474.32" width="9.44" height="9.44" rx="2.64" fill="#38BDF8" />
  <rect x="799.23" y="483.76" width="9.44" height="9.44" rx="2.64" fill="#38BDF8" />
  <rect x="846.41" y="483.76" width="9.44" height="9.44" rx="2.64" fill="#38BDF8" />
  <rect x="855.85" y="483.76" width="9.44" height="9.44" rx="2.64" fill="#38BDF8" />
  <rect x="874.72" y="483.76" width="9.44" height="9.44" rx="2.64" fill="#38BDF8" />
  <rect x="903.03" y="483.76" width="9.44" height="9.44" rx="2.64" fill="#38BDF8" />
  <rect x="931.33" y="483.76" width="9.44" height="9.44" rx="2.64" fill="#38BDF8" />
  <rect x="940.77" y="483.76" width="9.44" height="9.44" rx="2.64" fill="#38BDF8" />
  <rect x="1006.82" y="483.76" width="9.44" height="9.44" rx="2.64" fill="#38BDF8" />
  <rect x="714.31" y="181.81" width="66.05" height="66.05" rx="16.98" fill="#38BDF8" />
  <rect x="723.74" y="191.24" width="47.18" height="47.18" rx="11.32" fill="#0B1120" />
  <rect x="733.18" y="200.68" width="28.31" height="28.31" rx="7.55" fill="#38BDF8" />
  <rect x="959.64" y="181.81" width="66.05" height="66.05" rx="16.98" fill="#38BDF8" />
  <rect x="969.08" y="191.24" width="47.18" height="47.18" rx="11.32" fill="#0B1120" />
  <rect x="978.51" y="200.68" width="28.31" height="28.31" rx="7.55" fill="#38BDF8" />
  <rect x="714.31" y="427.14" width="66.05" height="66.05" rx="16.98" fill="#38BDF8" />
  <rect x="723.74" y="436.58" width="47.18" height="47.18" rx="11.32" fill="#0B1120" />
  <rect x="733.18" y="446.01" width="28.31" height="28.31" rx="7.55" fill="#38BDF8" />
  <rect x="829.90" y="297.40" width="80.21" height="80.21" rx="14.44" fill="#111827" />
  <rect x="836.97" y="304.47" width="66.05" height="66.05" rx="11.89" fill="#0A66C2" />
  <g transform="translate(836.97, 304.47) scale(2.7521)">
    <path fill="#ffffff" d="M18.5 18.5v-5.3a3.26 3.26 0 0 0-3.26-3.26c-.85 0-1.84.52-2.28 1.3v-1.11h-2.79v8.37h2.79v-4.93c0-.77.62-1.4 1.39-1.4a1.4 1.4 0 0 1 1.4 1.4v4.93h2.75M6.46 8.76a1.69 1.69 0 1 0-.01-3.38 1.69 1.69 0 0 0 .01 3.38m1.4 9.74v-8.37H5.06v8.37h2.8z" />
  </g>
</svg>