<svg xmlns="http://www.w3.org/2000/svg" viewBox="0 0 820 820" width="820" height="820">
<defs>
  <filter id="subtle-shadow" x="-10%" y="-10%" width="120%" height="120%">
    <feDropShadow dx="0" dy="4" stdDeviation="6" flood-color="#000000" flood-opacity="0.18" />
  </filter>
</defs>
  <rect width="820" height="820" rx="28" fill="#FFFFFF" />
  <rect x="240" y="80" width="20" height="20" rx="5.6000000000000005" fill="#0A66C2" />
  <rect x="280" y="80" width="20" height="20" rx="5.6000000000000005" fill="#0A66C2" />
  <rect x="320" y="80" width="20" height="20" rx="5.6000000000000005" fill="#0A66C2" />
  <rect x="360" y="80" width="20" height="20" rx="5.6000000000000005" fill="#0A66C2" />
  <rect x="440" y="80" width="20" height="20" rx="5.6000000000000005" fill="#0A66C2" />
  <rect x="460" y="80" width="20" height="20" rx="5.6000000000000005" fill="#0A66C2" />
  <rect x="540" y="80" width="20" height="20" rx="5.6000000000000005" fill="#0A66C2" />
  <rect x="560" y="80" width="20" height="20" rx="5.6000000000000005" fill="#0A66C2" />
  <rect x="240" y="100" width="20" height="20" rx="5.6000000000000005" fill="#0A66C2" />
  <rect x="260" y="100" width="20" height="20" rx="5.6000000000000005" fill="#0A66C2" />
  <rect x="300" y="100" width="20" height="20" rx="5.6000000000000005" fill="#0A66C2" />
  <rect x="340" y="100" width="20" height="20" rx="5.6000000000000005" fill="#0A66C2" />
  <rect x="360" y="100" width="20" height="20" rx="5.6000000000000005" fill="#0A66C2" />
  <rect x="380" y="100" width="20" height="20" rx="5.6000000000000005" fill="#0A66C2" />
  <rect x="400" y="100" width="20" height="20" rx="5.6000000000000005" fill="#0A66C2" />
  <rect x="460" y="100" width="20" height="20" rx="5.6000000000000005" fill="#0A66C2" />
  <rect x="520" y="100" width="20" height="20" rx="5.6000000000000005" fill="#0A66C2" />
  <rect x="560" y="100" width="20" height="20" rx="5.6000000000000005" fill="#0A66C2" />
  <rect x="240" y="120" width="20" height="20" rx="5.6000000000000005" fill="#0A66C2" />
  <rect x="280" y="120" width="20" height="20" rx="5.6000000000000005" fill="#0A66C2" />
  <rect x="320" y="120" width="20" height="20" rx="5.6000000000000005" fill="#0A66C2" />
  <rect x="360" y="120" width="20" height="20" rx="5.6000000000000005" fill="#0A66C2" />
  <rect x="440" y="120" width="20" height="20" rx="5.6000000000000005" fill="#0A66C2" />
  <rect x="480" y="120" width="20" height="20" rx="5.6000000000000005" fill="#0A66C2" />
  <rect x="500" y="120" width="20" height="20" rx="5.6000000000000005" fill="#0A66C2" />
  <rect x="540" y="120" width="20" height="20" rx="5.6000000000000005" fill="#0A66C2" />
  <rect x="560" y="120" width="20" height="20" rx="5.6000000000000005" fill="#0A66C2" />
  <rect x="260" y="140" width="20" height="20" rx="5.6000000000000005" fill="#0A66C2" />
  <rect x="280" y="140" width="20" height="20" rx="5.6000000000000005" fill="#0A66C2" />
  <rect x="340" y="140" width="20" height="20" rx="5.6000000000000005" fill="#0A66C2" />
  <rect x="420" y="140" width="20" height="20" rx="5.6000000000000005" fill="#0A66C2" />
  <rect x="460" y="140" width="20" height="20" rx="5.6000000000000005" fill="#0A66C2" />
  <rect x="520" y="140" width="20" height="20" rx="5.6000000000000005" fill="#0A66C2" />
  <rect x="540" y="140" width="20" height="20" rx="5.6000000000000005" fill="#0A66C2" />
  <rect x="560" y="140" width="20" height="20" rx="5.6000000000000005" fill="#0A66C2" />
  <rect x="260" y="160" width="20" height="20" rx="5.6000000000000005" fill="#0A66C2" />
  <rect x="300" y="160" width="20" height="20" rx="5.6000000000000005" fill="#0A66C2" />
  <rect x="320" y="160" width="20" height="20" rx="5.6000000000000005" fill="#0A66C2" />
  <rect x="360" y="160" width="20" height="20" rx="5.6000000000000005" fill="#0A66C2" />
  <rect x="460" y="160" width="20" height="20" rx="5.6000000000000005" fill="#0A66C2" />
  <rect x="480" y="160" width="20" height="20" rx="5.6000000000000005" fill="#0A66C2" />
  <rect x="540" y="160" width="20" height="20" rx="5.6000000000000005" fill="#0A66C2" />
  <rect x="240" y="180" width="20" height="20" rx="5.6000000000000005" fill="#0A66C2" />
  <rect x="260" y="180" width="20" height="20" rx="5.6000000000000005" fill="#0A66C2" />
  <rect x="280" y="180" width="20" height="20" rx="5.6000000000000005" fill="#0A66C2" />
  <rect x="300" y="180" width="20" height="20" rx="5.6000000000000005" fill="#0A66C2" />
  <rect x="320" y="180" width="20" height="20" rx="5.6000000000000005" fill="#0A66C2" />
  <rect x="360" y="180" width="20" height="20" rx="5.6000000000000005" fill="#0A66C2" />
  <rect x="380" y="180" width="20" height="20" rx="5.6000000000000005" fill="#0A66C2" />
  <rect x="400" y="180" width="20" height="20" rx="5.6000000000000005" fill="#0A66C2" />
  <rect x="440" y="180" width="20" height="20" rx="5.6000000000000005" fill="#0A66C2" />
  <rect x="500" y="180" width="20" height="20" rx="5.6000000000000005" fill="#0A66C2" />
  <rect x="520" y="180" width="20" height="20" rx="5.6000000000000005" fill="#0A66C2" />
  <rect x="560" y="180" width="20" height="20" rx="5.6000000000000005" fill="#0A66C2" />
  <rect x="240" y="200" width="20" height="20" rx="5.6000000000000005" fill="#0A66C2" />
  <rect x="280" y="200" width="20" height="20" rx="5.6000000000000005" fill="#0A66C2" />
  <rect x="320" y="200" width="20" height="20" rx="5.6000000000000005" fill="#0A66C2" />
  <rect x="360" y="200" width="20" height="20" rx="5.6000000000000005" fill="#0A66C2" />
  <rect x="400" y="200" width="20" height="20" rx="5.6000000000000005" fill="#0A66C2" />
  <rect x="440" y="200" width="20" height="20" rx="5.6000000000000005" fill="#0A66C2" />
  <rect x="480" y="200" width="20" height="20" rx="5.6000000000000005" fill="#0A66C2" />
  <rect x="520" y="200" width="20" height="20" rx="5.6000000000000005" fill="#0A66C2" />
  <rect x="560" y="200" width="20" height="20" rx="5.6000000000000005" fill="#0A66C2" />
  <rect x="240" y="220" width="20" height="20" rx="5.6000000000000005" fill="#0A66C2" />
  <rect x="260" y="220" width="20" height="20" rx="5.6000000000000005" fill="#0A66C2" />
  <rect x="360" y="220" width="20" height="20" rx="5.6000000000000005" fill="#0A66C2" />
  <rect x="380" y="220" width="20" height="20" rx="5.6000000000000005" fill="#0A66C2" />
  <rect x="500" y="220" width="20" height="20" rx="5.6000000000000005" fill="#0A66C2" />
  <rect x="520" y="220" width="20" height="20" rx="5.6000000000000005" fill="#0A66C2" />
  <rect x="540" y="220" width="20" height="20" rx="5.6000000000000005" fill="#0A66C2" />
  <rect x="560" y="220" width="20" height="20" rx="5.6000000000000005" fill="#0A66C2" />
  <rect x="120" y="240" width="20" height="20" rx="5.6000000000000005" fill="#0A66C2" />
  <rect x="140" y="240" width="20" height="20" rx="5.6000000000000005" fill="#0A66C2" />
  <rect x="160" y="240" width="20" height="20" rx="5.6000000000000005" fill="#0A66C2" />
  <rect x="200" y="240" width="20" height="20" rx="5.6000000000000005" fill="#0A66C2" />
  <rect x="240" y="240" width="20" height="20" rx="5.6000000000000005" fill="#0A66C2" />
  <rect x="300" y="240" width="20" height="20" rx="5.6000000000000005" fill="#0A66C2" />
  <rect x="320" y="240" width="20" height="20" rx="5.6000000000000005" fill="#0A66C2" />
  <rect x="340" y="240" width="20" height="20" rx="5.6000000000000005" fill="#0A66C2" />
  <rect x="380" y="240" width="20" height="20" rx="5.6000000000000005" fill="#0A66C2" />
  <rect x="400" y="240" width="20" height="20" rx="5.6000000000000005" fill="#0A66C2" />
  <rect x="440" y="240" width="20" height="20" rx="5.6000000000000005" fill="#0A66C2" />
  <rect x="560" y="240" width="20" height="20" rx="5.6000000000000005" fill="#0A66C2" />
  <rect x="580" y="240" width="20" height="20" rx="5.6000000000000005" fill="#0A66C2" />
  <rect x="600" y="240" width="20" height="20" rx="5.6000000000000005" fill="#0A66C2" />
  <rect x="620" y="240" width="20" height="20" rx="5.6000000000000005" fill="#0A66C2" />
  <rect x="680" y="240" width="20" height="20" rx="5.6000000000000005" fill="#0A66C2" />
  <rect x="700" y="240" width="20" height="20" rx="5.6000000000000005" fill="#0A66C2" />
  <rect x="720" y="240" width="20" height="20" rx="5.6000000000000005" fill="#0A66C2" />
  <rect x="80" y="260" width="20" height="20" rx="5.6000000000000005" fill="#0A66C2" />
  <rect x="100" y="260" width="20" height="20" rx="5.6000000000000005" fill="#0A66C2" />
  <rect x="140" y="260" width="20" height="20" rx="5.6000000000000005" fill="#0A66C2" />
  <rect x="220" y="260" width="20" height="20" rx="5.6000000000000005" fill="#0A66C2" />
  <rect x="240" y="260" width="20" height="20" rx="5.6000000000000005" fill="#0A66C2" />
  <rect x="260" y="260" width="20" height="20" rx="5.6000000000000005" fill="#0A66C2" />
  <rect x="380" y="260" width="20" height="20" rx="5.6000000000000005" fill="#0A66C2" />
  <rect x="420" y="260" width="20" height="20" rx="5.6000000000000005" fill="#0A66C2" />
  <rect x="440" y="260" width="20" height="20" rx="5.6000000000000005" fill="#0A66C2" />
  <rect x="460" y="260" width="20" height="20" rx="5.6000000000000005" fill="#0A66C2" />
  <rect x="480" y="260" width="20" height="20" rx="5.6000000000000005" fill="#0A66C2" />
  <rect x="500" y="260" width="20" height="20" rx="5.6000000000000005" fill="#0A66C2" />
  <rect x="540" y="260" width="20" height="20" rx="5.6000000000000005" fill="#0A66C2" />
  <rect x="580" y="260" width="20" height="20" rx="5.6000000000000005" fill="#0A66C2" />
  <rect x="600" y="260" width="20" height="20" rx="5.6000000000000005" fill="#0A66C2" />
  <rect x="660" y="260" width="20" height="20" rx="5.6000000000000005" fill="#0A66C2" />
  <rect x="680" y="260" width="20" height="20" rx="5.6000000000000005" fill="#0A66C2" />
  <rect x="700" y="260" width="20" height="20" rx="5.6000000000000005" fill="#0A66C2" />
  <rect x="720" y="260" width="20" height="20" rx="5.6000000000000005" fill="#0A66C2" />
  <rect x="80" y="280" width="20" height="20" rx="5.6000000000000005" fill="#0A66C2" />
  <rect x="100" y="280" width="20" height="20" rx="5.6000000000000005" fill="#0A66C2" />
  <rect x="120" y="280" width="20" height="20" rx="5.6000000000000005" fill="#0A66C2" />
  <rect x="140" y="280" width="20" height="20" rx="5.6000000000000005" fill="#0A66C2" />
  <rect x="160" y="280" width="20" height="20" rx="5.6000000000000005" fill="#0A66C2" />
  <rect x="180" y="280" width="20" height="20" rx="5.6000000000000005" fill="#0A66C2" />
  <rect x="200" y="280" width="20" height="20" rx="5.6000000000000005" fill="#0A66C2" />
  <rect x="280" y="280" width="20" height="20" rx="5.6000000000000005" fill="#0A66C2" />
  <rect x="380" y="280" width="20" height="20" rx="5.6000000000000005" fill="#0A66C2" />
  <rect x="400" y="280" width="20" height="20" rx="5.6000000000000005" fill="#0A66C2" />
  <rect x="440" y="280" width="20" height="20" rx="5.6000000000000005" fill="#0A66C2" />
  <rect x="460" y="280" width="20" height="20" rx="5.6000000000000005" fill="#0A66C2" />
  <rect x="500" y="280" width="20" height="20" rx="5.6000000000000005" fill="#0A66C2" />
  <rect x="580" y="280" width="20" height="20" rx="5.6000000000000005" fill="#0A66C2" />
  <rect x="600" y="280" width="20" height="20" rx="5.6000000000000005" fill="#0A66C2" />
  <rect x="620" y="280" width="20" height="20" rx="5.6000000000000005" fill="#0A66C2" />
  <rect x="680" y="280" width="20" height="20" rx="5.6000000000000005" fill="#0A66C2" />
  <rect x="700" y="280" width="20" height="20" rx="5.6000000000000005" fill="#0A66C2" />
  <rect x="100" y="300" width="20" height="20" rx="5.6000000000000005" fill="#0A66C2" />
  <rect x="220" y="300" width="20" height="20" rx="5.6000000000000005" fill="#0A66C2" />
  <rect x="280" y="300" width="20" height="20" rx="5.6000000000000005" fill="#0A66C2" />
  <rect x="300" y="300" width="20" height="20" rx="5.6000000000000005" fill="#0A66C2" />
  <rect x="360" y="300" width="20" height="20" rx="5.6000000000000005" fill="#0A66C2" />
  <rect x="380" y="300" width="20" height="20" rx="5.6000000000000005" fill="#0A66C2" />
  <rect x="400" y="300" width="20" height="20" rx="5.6000000000000005" fill="#0A66C2" />
  <rect x="420" y="300" width="20" height="20" rx="5.6000000000000005" fill="#0A66C2" />
  <rect x="480" y="300" width="20" height="20" rx="5.6000000000000005" fill="#0A66C2" />
  <rect x="500" y="300" width="20" height="20" rx="5.6000000000000005" fill="#0A66C2" />
  <rect x="520" y="300" width="20" height="20" rx="5.6000000000000005" fill="#0A66C2" />
  <rect x="540" y="300" width="20" height="20" rx="5.6000000000000005" fill="#0A66C2" />
  <rect x="600" y="300" width="20" height="20" rx="5.6000000000000005" fill="#0A66C2" />
  <rect x="660" y="300" width="20" height="20" rx="5.6000000000000005" fill="#0A66C2" />
  <rect x="680" y="300" width="20" height="20" rx="5.6000000000000005" fill="#0A66C2" />
  <rect x="700" y="300" width="20" height="20" rx="5.6000000000000005" fill="#0A66C2" />
  <rect x="720" y="300" width="20" height="20" rx="5.6000000000000005" fill="#0A66C2" />
  <rect x="120" y="320" width="20" height="20" rx="5.6000000000000005" fill="#0A66C2" />
  <rect x="160" y="320" width="20" height="20" rx="5.6000000000000005" fill="#0A66C2" />
  <rect x="180" y="320" width="20" height="20" rx="5.6000000000000005" fill="#0A66C2" />
  <rect x="200" y="320" width="20" height="20" rx="5.6000000000000005" fill="#0A66C2" />
  <rect x="280" y="320" width="20" height="20" rx="5.6000000000000005" fill="#0A66C2" />
  <rect x="300" y="320" width="20" height="20" rx="5.6000000000000005" fill="#0A66C2" />
  <rect x="340" y="320" width="20" height="20" rx="5.6000000000000005" fill="#0A66C2" />
  <rect x="400" y="320" width="20" height="20" rx="5.6000000000000005" fill="#0A66C2" />
  <rect x="420" y="320" width="20" height="20" rx="5.6000000000000005" fill="#0A66C2" />
  <rect x="460" y="320" width="20" height="20" rx="5.6000000000000005" fill="#0A66C2" />
  <rect x="480" y="320" width="20" height="20" rx="5.6000000000000005" fill="#0A66C2" />
  <rect x="500" y="320" width="20" height="20" rx="5.6000000000000005" fill="#0A66C2" />
  <rect x="540" y="320" width="20" height="20" rx="5.6000000000000005" fill="#0A66C2" />
  <rect x="560" y="320" width="20" height="20" rx="5.6000000000000005" fill="#0A66C2" />
  <rect x="580" y="320" width="20" height="20" rx="5.6000000000000005" fill="#0A66C2" />
  <rect x="620" y="320" width="20" height="20" rx="5.6000000000000005" fill="#0A66C2" />
  <rect x="640" y="320" width="20" height="20" rx="5.6000000000000005" fill="#0A66C2" />
  <rect x="700" y="320" width="20" height="20" rx="5.6000000000000005" fill="#0A66C2" />
  <rect x="100" y="340" width="20" height="20" rx="5.6000000000000005" fill="#0A66C2" />
  <rect x="120" y="340" width="20" height="20" rx="5.6000000000000005" fill="#0A66C2" />
  <rect x="160" y="340" width="20" height="20" rx="5.6000000000000005" fill="#0A66C2" />
  <rect x="180" y="340" width="20" height="20" rx="5.6000000000000005" fill="#0A66C2" />
  <rect x="240" y="340" width="20" height="20" rx="5.6000000000000005" fill="#0A66C2" />
  <rect x="260" y="340" width="20" height="20" rx="5.6000000000000005" fill="#0A66C2" />
  <rect x="280" y="340" width="20" height="20" rx="5.6000000000000005" fill="#0A66C2" />
  <rect x="300" y="340" width="20" height="20" rx="5.6000000000000005" fill="#0A66C2" />
  <rect x="320" y="340" width="20" height="20" rx="5.6000000000000005" fill="#0A66C2" />
  <rect x="480" y="340" width="20" height="20" rx="5.6000000000000005" fill="#0A66C2" />
  <rect x="540" y="340" width="20" height="20" rx="5.6000000000000005" fill="#0A66C2" />
  <rect x="600" y="340" width="20" height="20" rx="5.6000000000000005" fill="#0A66C2" />
  <rect x="660" y="340" width="20" height="20" rx="5.6000000000000005" fill="#0A66C2" />
  <rect x="720" y="340" width="20" height="20" rx="5.6000000000000005" fill="#0A66C2" />
  <rect x="80" y="360" width="20" height="20" rx="5.6000000000000005" fill="#0A66C2" />
  <rect x="100" y="360" width="20" height="20" rx="5.6000000000000005" fill="#0A66C2" />
  <rect x="140" y="360" width="20" height="20" rx="5.6000000000000005" fill="#0A66C2" />
  <rect x="200" y="360" width="20" height="20" rx="5.6000000000000005" fill="#0A66C2" />
  <rect x="240" y="360" width="20" height="20" rx="5.6000000000000005" fill="#0A66C2" />
  <rect x="260" y="360" width="20" height="20" rx="5.6000000000000005" fill="#0A66C2" />
  <rect x="300" y="360" width="20" height="20" rx="5.6000000000000005" fill="#0A66C2" />
  <rect x="320" y="360" width="20" height="20" rx="5.6000000000000005" fill="#0A66C2" />
  <rect x="480" y="360" width="20" height="20" rx="5.6000000000000005" fill="#0A66C2" />
  <rect x="520" y="360" width="20" height="20" rx="5.6000000000000005" fill="#0A66C2" />
  <rect x="580" y="360" width="20" height="20" rx="5.6000000000000005" fill="#0A66C2" />
  <rect x="600" y="360" width="20" height="20" rx="5.6000000000000005" fill="#0A66C2" />
  <rect x="700" y="360" width="20" height="20" rx="5.6000000000000005" fill="#0A66C2" />
  <rect x="80" y="380" width="20" height="20" rx="5.6000000000000005" fill="#0A66C2" />
  <rect x="100" y="380" width="20" height="20" rx="5.6000000000000005" fill="#0A66C2" />
  <rect x="160" y="380" width="20" height="20" rx="5.6000000000000005" fill="#0A66C2" />
  <rect x="260" y="380" width="20" height="20" rx="5.6000000000000005" fill="#0A66C2" />
  <rect x="280" y="380" width="20" height="20" rx="5.6000000000000005" fill="#0A66C2" />
  <rect x="300" y="380" width="20" height="20" rx="5.6000000000000005" fill="#0A66C2" />
  <rect x="500" y="380" width="20" height="20" rx="5.6000000000000005" fill="#0A66C2" />
  <rect x="520" y="380" width="20" height="20" rx="5.6000000000000005" fill="#0A66C2" />
  <rect x="560" y="380" width="20" height="20" rx="5.6000000000000005" fill="#0A66C2" />
  <rect x="600" y="380" width="20" height="20" rx="5.6000000000000005" fill="#0A66C2" />
  <rect x="640" y="380" width="20" height="20" rx="5.6000000000000005" fill="#0A66C2" />
  <rect x="680" y="380" width="20" height="20" rx="5.6000000000000005" fill="#0A66C2" />
  <rect x="700" y="380" width="20" height="20" rx="5.6000000000000005" fill="#0A66C2" />
  <rect x="80" y="400" width="20" height="20" rx="5.6000000000000005" fill="#0A66C2" />
  <rect x="100" y="400" width="20" height="20" rx="5.6000000000000005" fill="#0A66C2" />
  <rect x="140" y="400" width="20" height="20" rx="5.6000000000000005" fill="#0A66C2" />
  <rect x="180" y="400" width="20" height="20" rx="5.6000000000000005" fill="#0A66C2" />
  <rect x="200" y="400" width="20" height="20" rx="5.6000000000000005" fill="#0A66C2" />
  <rect x="240" y="400" width="20" height="20" rx="5.6000000000000005" fill="#0A66C2" />
  <rect x="280" y="400" width="20" height="20" rx="5.6000000000000005" fill="#0A66C2" />
  <rect x="540" y="400" width="20" height="20" rx="5.6000000000000005" fill="#0A66C2" />
  <rect x="580" y="400" width="20" height="20" rx="5.6000000000000005" fill="#0A66C2" />
  <rect x="620" y="400" width="20" height="20" rx="5.6000000000000005" fill="#0A66C2" />
  <rect x="640" y="400" width="20" height="20" rx="5.6000000000000005" fill="#0A66C2" />
  <rect x="80" y="420" width="20" height="20" rx="5.6000000000000005" fill="#0A66C2" />
  <rect x="100" y="420" width="20" height="20" rx="5.6000000000000005" fill="#0A66C2" />
  <rect x="120" y="420" width="20" height="20" rx="5.6000000000000005" fill="#0A66C2" />
  <rect x="160" y="420" width="20" height="20" rx="5.6000000000000005" fill="#0A66C2" />
  <rect x="180" y="420" width="20" height="20" rx="5.6000000000000005" fill="#0A66C2" />
  <rect x="540" y="420" width="20" height="20" rx="5.6000000000000005" fill="#0A66C2" />
  <rect x="560" y="420" width="20" height="20" rx="5.6000000000000005" fill="#0A66C2" />
  <rect x="600" y="420" width="20" height="20" rx="5.6000000000000005" fill="#0A66C2" />
  <rect x="620" y="420" width="20" height="20" rx="5.6000000000000005" fill="#0A66C2" />
  <rect x="720" y="420" width="20" height="20" rx="5.6000000000000005" fill="#0A66C2" />
  <rect x="100" y="440" width="20" height="20" rx="5.6000000000000005" fill="#0A66C2" />
  <rect x="120" y="440" width="20" height="20" rx="5.6000000000000005" fill="#0A66C2" />
  <rect x="160" y="440" width="20" height="20" rx="5.6000000000000005" fill="#0A66C2" />
  <rect x="200" y="440" width="20" height="20" rx="5.6000000000000005" fill="#0A66C2" />
  <rect x="220" y="440" width="20" height="20" rx="5.6000000000000005" fill="#0A66C2" />
  <rect x="240" y="440" width="20" height="20" rx="5.6000000000000005" fill="#0A66C2" />
  <rect x="280" y="440" width="20" height="20" rx="5.6000000000000005" fill="#0A66C2" />
  <rect x="320" y="440" width="20" height="20" rx="5.6000000000000005" fill="#0A66C2" />
  <rect x="480" y="440" width="20" height="20" rx="5.6000000000000005" fill="#0A66C2" />
  <rect x="600" y="440" width="20" height="20" rx="5.6000000000000005" fill="#0A66C2" />
  <rect x="620" y="440" width="20" height="20" rx="5.6000000000000005" fill="#0A66C2" />
  <rect x="640" y="440" width="20" height="20" rx="5.6000000000000005" fill="#0A66C2" />
  <rect x="680" y="440" width="20" height="20" rx="5.6000000000000005" fill="#0A66C2" />
  <rect x="700" y="440" width="20" height="20" rx="5.6000000000000005" fill="#0A66C2" />
  <rect x="100" y="460" width="20" height="20" rx="5.6000000000000005" fill="#0A66C2" />
  <rect x="160" y="460" width="20" height="20" rx="5.6000000000000005" fill="#0A66C2" />
  <rect x="220" y="460" width="20" height="20" rx="5.6000000000000005" fill="#0A66C2" />
  <rect x="240" y="460" width="20" height="20" rx="5.6000000000000005" fill="#0A66C2" />
  <rect x="260" y="460" width="20" height="20" rx="5.6000000000000005" fill="#0A66C2" />
  <rect x="320" y="460" width="20" height="20" rx="5.6000000000000005" fill="#0A66C2" />
  <rect x="480" y="460" width="20" height="20" rx="5.6000000000000005" fill="#0A66C2" />
  <rect x="500" y="460" width="20" height="20" rx="5.6000000000000005" fill="#0A66C2" />
  <rect x="520" y="460" width="20" height="20" rx="5.6000000000000005" fill="#0A66C2" />
  <rect x="540" y="460" width="20" height="20" rx="5.6000000000000005" fill="#0A66C2" />
  <rect x="560" y="460" width="20" height="20" rx="5.6000000000000005" fill="#0A66C2" />
  <rect x="640" y="460" width="20" height="20" rx="5.6000000000000005" fill="#0A66C2" />
  <rect x="660" y="460" width="20" height="20" rx="5.6000000000000005" fill="#0A66C2" />
  <rect x="680" y="460" width="20" height="20" rx="5.6000000000000005" fill="#0A66C2" />
  <rect x="700" y="460" width="20" height="20" rx="5.6000000000000005" fill="#0A66C2" />
  <rect x="100" y="480" width="20" height="20" rx="5.6000000000000005" fill="#0A66C2" />
  <rect x="140" y="480" width="20" height="20" rx="5.6000000000000005" fill="#0A66C2" />
  <rect x="160" y="480" width="20" height="20" rx="5.6000000000000005" fill="#0A66C2" />
  <rect x="180" y="480" width="20" height="20" rx="5.6000000000000005" fill="#0A66C2" />
  <rect x="200" y="480" width="20" height="20" rx="5.6000000000000005" fill="#0A66C2" />
  <rect x="300" y="480" width="20" height="20" rx="5.6000000000000005" fill="#0A66C2" />
  <rect x="340" y="480" width="20" height="20" rx="5.6000000000000005" fill="#0A66C2" />
  <rect x="380" y="480" width="20" height="20" rx="5.6000000000000005" fill="#0A66C2" />
  <rect x="420" y="480" width="20" height="20" rx="5.6000000000000005" fill="#0A66C2" />
  <rect x="440" y="480" width="20" height="20" rx="5.6000000000000005" fill="#0A66C2" />
  <rect x="460" y="480" width="20" height="20" rx="5.6000000000000005" fill="#0A66C2" />
  <rect x="480" y="480" width="20" height="20" rx="5.6000000000000005" fill="#0A66C2" />
  <rect x="520" y="480" width="20" height="20" rx="5.6000000000000005" fill="#0A66C2" />
  <rect x="580" y="480" width="20" height="20" rx="5.6000000000000005" fill="#0A66C2" />
  <rect x="620" y="480" width="20" height="20" rx="5.6000000000000005" fill="#0A66C2" />
  <rect x="640" y="480" width="20" height="20" rx="5.6000000000000005" fill="#0A66C2" />
  <rect x="660" y="480" width="20" height="20" rx="5.6000000000000005" fill="#0A66C2" />
  <rect x="720" y="480" width="20" height="20" rx="5.6000000000000005" fill="#0A66C2" />
  <rect x="80" y="500" width="20" height="20" rx="5.6000000000000005" fill="#0A66C2" />
  <rect x="100" y="500" width="20" height="20" rx="5.6000000000000005" fill="#0A66C2" />
  <rect x="140" y="500" width="20" height="20" rx="5.6000000000000005" fill="#0A66C2" />
  <rect x="240" y="500" width="20" height="20" rx="5.6000000000000005" fill="#0A66C2" />
  <rect x="320" y="500" width="20" height="20" rx="5.6000000000000005" fill="#0A66C2" />
  <rect x="340" y="500" width="20" height="20" rx="5.6000000000000005" fill="#0A66C2" />
  <rect x="360" y="500" width="20" height="20" rx="5.6000000000000005" fill="#0A66C2" />
  <rect x="420" y="500" width="20" height="20" rx="5.6000000000000005" fill="#0A66C2" />
  <rect x="460" y="500" width="20" height="20" rx="5.6000000000000005" fill="#0A66C2" />
  <rect x="480" y="500" width="20" height="20" rx="5.6000000000000005" fill="#0A66C2" />
  <rect x="540" y="500" width="20" height="20" rx="5.6000000000000005" fill="#0A66C2" />
  <rect x="600" y="500" width="20" height="20" rx="5.6000000000000005" fill="#0A66C2" />
  <rect x="620" y="500" width="20" height="20" rx="5.6000000000000005" fill="#0A66C2" />
  <rect x="660" y="500" width="20" height="20" rx="5.6000000000000005" fill="#0A66C2" />
  <rect x="680" y="500" width="20" height="20" rx="5.6000000000000005" fill="#0A66C2" />
  <rect x="720" y="500" width="20" height="20" rx="5.6000000000000005" fill="#0A66C2" />
  <rect x="80" y="520" width="20" height="20" rx="5.6000000000000005" fill="#0A66C2" />
  <rect x="120" y="520" width="20" height="20" rx="5.6000000000000005" fill="#0A66C2" />
  <rect x="140" y="520" width="20" height="20" rx="5.6000000000000005" fill="#0A66C2" />
  <rect x="180" y="520" width="20" height="20" rx="5.6000000000000005" fill="#0A66C2" />
  <rect x="200" y="520" width="20" height="20" rx="5.6000000000000005" fill="#0A66C2" />
  <rect x="240" y="520" width="20" height="20" rx="5.6000000000000005" fill="#0A66C2" />
  <rect x="280" y="520" width="20" height="20" rx="5.6000000000000005" fill="#0A66C2" />
  <rect x="300" y="520" width="20" height="20" rx="5.6000000000000005" fill="#0A66C2" />
  <rect x="340" y="520" width="20" height="20" rx="5.6000000000000005" fill="#0A66C2" />
  <rect x="460" y="520" width="20" height="20" rx="5.6000000000000005" fill="#0A66C2" />
  <rect x="480" y="520" width="20" height="20" rx="5.6000000000000005" fill="#0A66C2" />
  <rect x="520" y="520" width="20" height="20" rx="5.6000000000000005" fill="#0A66C2" />
  <rect x="640" y="520" width="20" height="20" rx="5.6000000000000005" fill="#0A66C2" />
  <rect x="660" y="520" width="20" height="20" rx="5.6000000000000005" fill="#0A66C2" />
  <rect x="700" y="520" width="20" height="20" rx="5.6000000000000005" fill="#0A66C2" />
  <rect x="80" y="540" width="20" height="20" rx="5.6000000000000005" fill="#0A66C2" />
  <rect x="140" y="540" width="20" height="20" rx="5.6000000000000005" fill="#0A66C2" />
  <rect x="160" y="540" width="20" height="20" rx="5.6000000000000005" fill="#0A66C2" />
  <rect x="220" y="540" width="20" height="20" rx="5.6000000000000005" fill="#0A66C2" />
  <rect x="260" y="540" width="20" height="20" rx="5.6000000000000005" fill="#0A66C2" />
  <rect x="320" y="540" width="20" height="20" rx="5.6000000000000005" fill="#0A66C2" />
  <rect x="340" y="540" width="20" height="20" rx="5.6000000000000005" fill="#0A66C2" />
  <rect x="380" y="540" width="20" height="20" rx="5.6000000000000005" fill="#0A66C2" />
  <rect x="420" y="540" width="20" height="20" rx="5.6000000000000005" fill="#0A66C2" />
  <rect x="500" y="540" width="20" height="20" rx="5.6000000000000005" fill="#0A66C2" />
  <rect x="520" y="540" width="20" height="20" rx="5.6000000000000005" fill="#0A66C2" />
  <rect x="560" y="540" width="20" height="20" rx="5.6000000000000005" fill="#0A66C2" />
  <rect x="660" y="540" width="20" height="20" rx="5.6000000000000005" fill="#0A66C2" />
  <rect x="680" y="540" width="20" height="20" rx="5.6000000000000005" fill="#0A66C2" />
  <rect x="700" y="540" width="20" height="20" rx="5.6000000000000005" fill="#0A66C2" />
  <rect x="80" y="560" width="20" height="20" rx="5.6000000000000005" fill="#0A66C2" />
  <rect x="120" y="560" width="20" height="20" rx="5.6000000000000005" fill="#0A66C2" />
  <rect x="140" y="560" width="20" height="20" rx="5.6000000000000005" fill="#0A66C2" />
  <rect x="200" y="560" width="20" height="20" rx="5.6000000000000005" fill="#0A66C2" />
  <rect x="220" y="560" width="20" height="20" rx="5.6000000000000005" fill="#0A66C2" />
  <rect x="240" y="560" width="20" height="20" rx="5.6000000000000005" fill="#0A66C2" />
  <rect x="260" y="560" width="20" height="20" rx="5.6000000000000005" fill="#0A66C2" />
  <rect x="300" y="560" width="20" height="20" rx="5.6000000000000005" fill="#0A66C2" />
  <rect x="320" y="560" width="20" height="20" rx="5.6000000000000005" fill="#0A66C2" />
  <rect x="340" y="560" width="20" height="20" rx="5.6000000000000005" fill="#0A66C2" />
  <rect x="380" y="560" width="20" height="20" rx="5.6000000000000005" fill="#0A66C2" />
  <rect x="400" y="560" width="20" height="20" rx="5.6000000000000005" fill="#0A66C2" />
  <rect x="420" y="560" width="20" height="20" rx="5.6000000000000005" fill="#0A66C2" />
  <rect x="440" y="560" width="20" height="20" rx="5.6000000000000005" fill="#0A66C2" />
  <rect x="480" y="560" width="20" height="20" rx="5.6000000000000005" fill="#0A66C2" />
  <rect x="520" y="560" width="20" height="20" rx="5.6000000000000005" fill="#0A66C2" />
  <rect x="540" y="560" width="20" height="20" rx="5.6000000000000005" fill="#0A66C2" />
  <rect x="560" y="560" width="20" height="20" rx="5.6000000000000005" fill="#0A66C2" />
  <rect x="580" y="560" width="20" height="20" rx="5.6000000000000005" fill="#0A66C2" />
  <rect x="600" y="560" width="20" height="20" rx="5.6000000000000005" fill="#0A66C2" />
  <rect x="620" y="560" width="20" height="20" rx="5.6000000000000005" fill="#0A66C2" />
  <rect x="640" y="560" width="20" height="20" rx="5.6000000000000005" fill="#0A66C2" />
  <rect x="660" y="560" width="20" height="20" rx="5.6000000000000005" fill="#0A66C2" />
  <rect x="700" y="560" width="20" height="20" rx="5.6000000000000005" fill="#0A66C2" />
  <rect x="240" y="580" width="20" height="20" rx="5.6000000000000005" fill="#0A66C2" />
  <rect x="280" y="580" width="20" height="20" rx="5.6000000000000005" fill="#0A66C2" />
  <rect x="300" y="580" width="20" height="20" rx="5.6000000000000005" fill="#0A66C2" />
  <rect x="320" y="580" width="20" height="20" rx="5.6000000000000005" fill="#0A66C2" />
  <rect x="360" y="580" width="20" height="20" rx="5.6000000000000005" fill="#0A66C2" />
  <rect x="440" y="580" width="20" height="20" rx="5.6000000000000005" fill="#0A66C2" />
  <rect x="460" y="580" width="20" height="20" rx="5.6000000000000005" fill="#0A66C2" />
  <rect x="560" y="580" width="20" height="20" rx="5.6000000000000005" fill="#0A66C2" />
  <rect x="640" y="580" width="20" height="20" rx="5.6000000000000005" fill="#0A66C2" />
  <rect x="700" y="580" width="20" height="20" rx="5.6000000000000005" fill="#0A66C2" />
  <rect x="720" y="580" width="20" height="20" rx="5.6000000000000005" fill="#0A66C2" />
  <rect x="260" y="600" width="20" height="20" rx="5.6000000000000005" fill="#0A66C2" />
  <rect x="420" y="600" width="20" height="20" rx="5.6000000000000005" fill="#0A66C2" />
  <rect x="440" y="600" width="20" height="20" rx="5.6000000000000005" fill="#0A66C2" />
  <rect x="460" y="600" width="20" height="20" rx="5.6000000000000005" fill="#0A66C2" />
  <rect x="480" y="600" width="20" height="20" rx="5.6000000000000005" fill="#0A66C2" />
  <rect x="520" y="600" width="20" height="20" rx="5.6000000000000005" fill="#0A66C2" />
  <rect x="540" y="600" width="20" height="20" rx="5.6000000000000005" fill="#0A66C2" />
  <rect x="560" y="600" width="20" height="20" rx="5.6000000000000005" fill="#0A66C2" />
  <rect x="600" y="600" width="20" height="20" rx="5.6000000000000005" fill="#0A66C2" />
  <rect x="640" y="600" width="20" height="20" rx="5.6000000000000005" fill="#0A66C2" />
  <rect x="660" y="600" width="20" height="20" rx="5.6000000000000005" fill="#0A66C2" />
  <rect x="680" y="600" width="20" height="20" rx="5.6000000000000005" fill="#0A66C2" />
  <rect x="700" y="600" width="20" height="20" rx="5.6000000000000005" fill="#0A66C2" />
  <rect x="260" y="620" width="20" height="20" rx="5.6000000000000005" fill="#0A66C2" />
  <rect x="280" y="620" width="20" height="20" rx="5.6000000000000005" fill="#0A66C2" />
  <rect x="320" y="620" width="20" height="20" rx="5.6000000000000005" fill="#0A66C2" />
  <rect x="340" y="620" width="20" height="20" rx="5.6000000000000005" fill="#0A66C2" />
  <rect x="400" y="620" width="20" height="20" rx="5.6000000000000005" fill="#0A66C2" />
  <rect x="440" y="620" width="20" height="20" rx="5.6000000000000005" fill="#0A66C2" />
  <rect x="540" y="620" width="20" height="20" rx="5.6000000000000005" fill="#0A66C2" />
  <rect x="560" y="620" width="20" height="20" rx="5.6000000000000005" fill="#0A66C2" />
  <rect x="640" y="620" width="20" height="20" rx="5.6000000000000005" fill="#0A66C2" />
  <rect x="660" y="620" width="20" height="20" rx="5.6000000000000005" fill="#0A66C2" />
  <rect x="680" y="620" width="20" height="20" rx="5.6000000000000005" fill="#0A66C2" />
  <rect x="700" y="620" width="20" height="20" rx="5.6000000000000005" fill="#0A66C2" />
  <rect x="720" y="620" width="20" height="20" rx="5.6000000000000005" fill="#0A66C2" />
  <rect x="240" y="640" width="20" height="20" rx="5.6000000000000005" fill="#0A66C2" />
  <rect x="280" y="640" width="20" height="20" rx="5.6000000000000005" fill="#0A66C2" />
  <rect x="300" y="640" width="20" height="20" rx="5.6000000000000005" fill="#0A66C2" />
  <rect x="360" y="640" width="20" height="20" rx="5.6000000000000005" fill="#0A66C2" />
  <rect x="420" y="640" width="20" height="20" rx="5.6000000000000005" fill="#0A66C2" />
  <rect x="480" y="640" width="20" height="20" rx="5.6000000000000005" fill="#0A66C2" />
  <rect x="500" y="640" width="20" height="20" rx="5.6000000000000005" fill="#0A66C2" />
  <rect x="520" y="640" width="20" height="20" rx="5.6000000000000005" fill="#0A66C2" />
  <rect x="560" y="640" width="20" height="20" rx="5.6000000000000005" fill="#0A66C2" />
  <rect x="580" y="640" width="20" height="20" rx="5.6000000000000005" fill="#0A66C2" />
  <rect x="600" y="640" width="20" height="20" rx="5.6000000000000005" fill="#0A66C2" />
  <rect x="620" y="640" width="20" height="20" rx="5.6000000000000005" fill="#0A66C2" />
  <rect x="640" y="640" width="20" height="20" rx="5.6000000000000005" fill="#0A66C2" />
  <rect x="700" y="640" width="20" height="20" rx="5.6000000000000005" fill="#0A66C2" />
  <rect x="720" y="640" width="20" height="20" rx="5.6000000000000005" fill="#0A66C2" />
  <rect x="240" y="660" width="20" height="20" rx="5.6000000000000005" fill="#0A66C2" />
  <rect x="260" y="660" width="20" height="20" rx="5.6000000000000005" fill="#0A66C2" />
  <rect x="300" y="660" width="20" height="20" rx="5.6000000000000005" fill="#0A66C2" />
  <rect x="360" y="660" width="20" height="20" rx="5.6000000000000005" fill="#0A66C2" />
  <rect x="380" y="660" width="20" height="20" rx="5.6000000000000005" fill="#0A66C2" />
  <rect x="440" y="660" width="20" height="20" rx="5.6000000000000005" fill="#0A66C2" />
  <rect x="480" y="660" width="20" height="20" rx="5.6000000000000005" fill="#0A66C2" />
  <rect x="500" y="660" width="20" height="20" rx="5.6000000000000005" fill="#0A66C2" />
  <rect x="540" y="660" width="20" height="20" rx="5.6000000000000005" fill="#0A66C2" />
  <rect x="580" y="660" width="20" height="20" rx="5.6000000000000005" fill="#0A66C2" />
  <rect x="640" y="660" width="20" height="20" rx="5.6000000000000005" fill="#0A66C2" />
  <rect x="660" y="660" width="20" height="20" rx="5.6000000000000005" fill="#0A66C2" />
  <rect x="720" y="660" width="20" height="20" rx="5.6000000000000005" fill="#0A66C2" />
  <rect x="240" y="680" width="20" height="20" rx="5.6000000000000005" fill="#0A66C2" />
  <rect x="260" y="680" width="20" height="20" rx="5.6000000000000005" fill="#0A66C2" />
  <rect x="280" y="680" width="20" height="20" rx="5.6000000000000005" fill="#0A66C2" />
  <rect x="300" y="680" width="20" height="20" rx="5.6000000000000005" fill="#0A66C2" />
  <rect x="320" y="680" width="20" height="20" rx="5.6000000000000005" fill="#0A66C2" />
  <rect x="360" y="680" width="20" height="20" rx="5.6000000000000005" fill="#0A66C2" />
  <rect x="440" y="680" width="20" height="20" rx="5.6000000000000005" fill="#0A66C2" />
  <rect x="460" y="680" width="20" height="20" rx="5.6000000000000005" fill="#0A66C2" />
  <rect x="480" y="680" width="20" height="20" rx="5.6000000000000005" fill="#0A66C2" />
  <rect x="500" y="680" width="20" height="20" rx="5.6000000000000005" fill="#0A66C2" />
  <rect x="520" y="680" width="20" height="20" rx="5.6000000000000005" fill="#0A66C2" />
  <rect x="560" y="680" width="20" height="20" rx="5.6000000000000005" fill="#0A66C2" />
  <rect x="580" y="680" width="20" height="20" rx="5.6000000000000005" fill="#0A66C2" />
  <rect x="600" y="680" width="20" height="20" rx="5.6000000000000005" fill="#0A66C2" />
  <rect x="660" y="680" width="20" height="20" rx="5.6000000000000005" fill="#0A66C2" />
  <rect x="260" y="700" width="20" height="20" rx="5.6000000000000005" fill="#0A66C2" />
  <rect x="280" y="700" width="20" height="20" rx="5.6000000000000005" fill="#0A66C2" />
  <rect x="340" y="700" width="20" height="20" rx="5.6000000000000005" fill="#0A66C2" />
  <rect x="360" y="700" width="20" height="20" rx="5.6000000000000005" fill="#0A66C2" />
  <rect x="420" y="700" width="20" height="20" rx="5.6000000000000005" fill="#0A66C2" />
  <rect x="440" y="700" width="20" height="20" rx="5.6000000000000005" fill="#0A66C2" />
  <rect x="460" y="700" width="20" height="20" rx="5.6000000000000005" fill="#0A66C2" />
  <rect x="580" y="700" width="20" height="20" rx="5.6000000000000005" fill="#0A66C2" />
  <rect x="600" y="700" width="20" height="20" rx="5.6000000000000005" fill="#0A66C2" />
  <rect x="620" y="700" width="20" height="20" rx="5.6000000000000005" fill="#0A66C2" />
  <rect x="660" y="700" width="20" height="20" rx="5.6000000000000005" fill="#0A66C2" />
  <rect x="680" y="700" width="20" height="20" rx="5.6000000000000005" fill="#0A66C2" />
  <rect x="260" y="720" width="20" height="20" rx="5.6000000000000005" fill="#0A66C2" />
  <rect x="360" y="720" width="20" height="20" rx="5.6000000000000005" fill="#0A66C2" />
  <rect x="380" y="720" width="20" height="20" rx="5.6000000000000005" fill="#0A66C2" />
  <rect x="420" y="720" width="20" height="20" rx="5.6000000000000005" fill="#0A66C2" />
  <rect x="480" y="720" width="20" height="20" rx="5.6000000000000005" fill="#0A66C2" />
  <rect x="540" y="720" width="20" height="20" rx="5.6000000000000005" fill="#0A66C2" />
  <rect x="560" y="720" width="20" height="20" rx="5.6000000000000005" fill="#0A66C2" />
  <rect x="700" y="720" width="20" height="20" rx="5.6000000000000005" fill="#0A66C2" />
  <rect x="80" y="80" width="140" height="140" rx="36.0" fill="#0A66C2" />
  <rect x="100" y="100" width="100" height="100" rx="24.0" fill="#FFFFFF" />
  <rect x="120" y="120" width="60" height="60" rx="16.0" fill="#0A66C2" />
  <rect x="600" y="80" width="140" height="140" rx="36.0" fill="#0A66C2" />
  <rect x="620" y="100" width="100" height="100" rx="24.0" fill="#FFFFFF" />
  <rect x="640" y="120" width="60" height="60" rx="16.0" fill="#0A66C2" />
  <rect x="80" y="600" width="140" height="140" rx="36.0" fill="#0A66C2" />
  <rect x="100" y="620" width="100" height="100" rx="24.0" fill="#FFFFFF" />
  <rect x="120" y="640" width="60" height="60" rx="16.0" fill="#0A66C2" />
  <!-- Center LinkedIn Logo Badge -->
  <rect x="325.0" y="325.0" width="170.0" height="170.0" rx="24" fill="#FFFFFF" filter="url(#subtle-shadow)" />
  <rect x="340.0" y="340.0" width="140.0" height="140.0" rx="20" fill="#0A66C2" />
  <g transform="translate(340.0, 340.0) scale(5.8333)">
    <path fill="#FFFFFF" d="M18.5 18.5v-5.3a3.26 3.26 0 0 0-3.26-3.26c-.85 0-1.84.52-2.28 1.3v-1.11h-2.79v8.37h2.79v-4.93c0-.77.62-1.4 1.39-1.4a1.4 1.4 0 0 1 1.4 1.4v4.93h2.75M6.46 8.76a1.69 1.69 0 1 0-.01-3.38 1.69 1.69 0 0 0 .01 3.38m1.4 9.74v-8.37H5.06v8.37h2.8z" />
  </g>
</svg>